<?xml version="1.0" encoding="utf-8"?>
<!DOCTYPE svg>
<svg version="1.0" xmlns="http://www.w3.org/2000/svg" width="278px" height="191px" viewBox="0 0 278 191" preserveAspectRatio="xMidYMid meet">
 <g fill="#ffffff">
  <path d="M246.30 169.75 c-0.15 -0.45 -0.90 -0.75 -1.75 -0.75 -1.70 0 -2.25 -1.10 -1.95 -4.05 0.15 -1.65 0.25 -1.70 2.45 -1.85 1.90 -0.10 2.60 0.10 3.90 1.15 1.35 1.15 1.55 1.65 1.55 3.80 l0 2.45 -1.95 0 c-1.25 0 -2.05 -0.25 -2.25 -0.75z"/>
  <path d="M69 129.75 l0 -34.25 1.75 0 1.75 0 0 34.25 0 34.25 -1.75 0 -1.75 0 0 -34.25z"/>
  <path d="M259.60 160.65 c0.15 -1.80 0.25 -1.90 2.05 -2.05 l1.90 -0.15 -0.15 1.90 c-0.15 1.80 -0.25 1.90 -2.05 2.05 l-1.90 0.15 0.15 -1.90z"/>
  <path d="M259.30 149.45 c-0.15 -0.85 -0.30 -2.25 -0.30 -3.05 0 -1.40 0.05 -1.45 2.15 -1.30 l2.10 0.15 0.15 2.90 0.15 2.85 -1.95 0 c-1.80 0 -2 -0.15 -2.30 -1.55z"/>
  <path d="M256.50 141 c0 -1.50 0.70 -2.05 1.15 -0.85 0.15 0.35 0.30 0.25 0.30 -0.25 0.05 -0.50 0.40 -0.90 0.80 -0.90 0.50 0 0.75 0.55 0.75 1.75 0 1.60 -0.10 1.75 -1.50 1.75 -1.35 0 -1.50 -0.15 -1.50 -1.50z"/>
  <path d="M198.50 127.75 c0 -1.60 0.10 -1.75 1.50 -1.75 0.85 0 1.55 0.30 1.55 0.65 0.20 1.90 -0.55 2.85 -2.15 2.85 -0.70 0 -0.90 -0.40 -0.90 -1.75z"/>
 </g>
 <g fill="#def4f9">
  <path d="M69.50 159.05 c0 -2.80 0.20 -5.15 0.50 -5.30 0.30 -0.20 0.50 1.35 0.50 4.30 0 2.55 0.10 4.50 0.25 4.35 0.15 -0.15 0.25 -12.85 0.25 -28.20 l0 -27.95 3.85 -2.15 c6.05 -3.40 11.80 -6.75 13.15 -7.70 1.70 -1.25 8.50 -1.30 8.50 -0.10 0 0.70 0.10 0.70 1.10 0 1 -0.70 5.05 -0.80 34 -0.80 l32.90 0 0 1.50 c0 0.85 0.10 1.50 0.25 1.50 0.35 0 3.95 -2.05 4.45 -2.55 0.30 -0.25 1.95 -0.45 3.75 -0.45 l3.30 0 0 34.25 0 34.25 -1.10 0 -1.15 0 0 -28.50 c0 -15.70 -0.15 -28.50 -0.30 -28.50 -0.15 0 -6.40 3.55 -13.85 7.95 -16.70 9.75 -25.25 14.70 -28.85 16.70 -1.50 0.85 -7.15 4.10 -12.50 7.25 -5.35 3.15 -11.30 6.65 -13.25 7.70 -1.90 1.10 -4.90 2.90 -6.60 3.95 -1.70 1.10 -3.25 1.95 -3.35 1.95 -0.25 0 -6.65 3.75 -12.95 7.55 -1.35 0.80 -2.60 1.45 -2.85 1.45 -0.25 0 -0.85 0.55 -1.40 1.25 -0.90 1.15 -1.35 1.25 -4.80 1.25 l-3.80 0 0 -4.95z"/>
  <path d="M69.50 129.80 c0 -14.65 0.20 -22.85 0.50 -23.05 0.35 -0.20 0.50 7.50 0.50 22.70 0 15.05 -0.15 23.05 -0.50 23.05 -0.35 0 -0.50 -7.90 -0.50 -22.70z"/>
  <path d="M24.50 141.75 c0 -1.05 -0.25 -1.25 -1.50 -1.25 -1.50 0 -1.50 -0.05 -1.50 -2.70 l0 -2.70 2.90 -1.65 c1.55 -0.90 3.30 -1.90 3.85 -2.25 0.55 -0.30 1.80 -1 2.75 -1.55 0.95 -0.55 5.25 -3.05 9.50 -5.50 4.25 -2.50 9.10 -5.30 10.75 -6.35 2.35 -1.40 3.55 -1.80 5.40 -1.80 l2.35 0 0 13.50 0 13.50 -17.25 0 -17.25 0 0 -1.25z"/>
 </g>
 <g fill="#f4e7d7">
  <path d="M13.90 189.65 l-4.90 -0.20 0 -52.70 c0 -46.55 -0.10 -52.75 -0.75 -52.75 -0.40 0 -0.75 -0.35 -0.75 -0.75 0 -0.65 9.80 -0.75 85 -0.75 75.20 0 85 0.10 85 0.75 0 0.40 -0.35 0.75 -0.80 0.75 -0.70 0 -0.80 0.65 -0.60 5 l0.20 5 -53.65 0 c-47.35 0 -53.65 0.10 -53.65 0.75 0 0.50 0.50 0.75 1.50 0.75 l1.50 0 0 6.20 c0 8.15 -0.90 8.90 -1.15 0.95 -0.05 -3.25 -0.20 8.90 -0.25 27 -0.10 28.90 0 32.85 0.65 32.85 0.40 0 0.75 0.35 0.75 0.75 0 0.50 -0.50 0.75 -1.50 0.75 -1 0 -1.50 0.25 -1.50 0.75 0 0.65 6.30 0.75 53.65 0.75 l53.60 0 -0.15 11.85 c-0.10 6.50 -0.20 11.90 -0.30 12 -0.05 0.05 -26.05 0.20 -57.70 0.25 l-57.60 0.15 0 -47.85 0 -47.90 -20.25 0 -20.25 0 0 48 c0 38.10 -0.15 48 -0.60 47.90 -0.35 -0.05 -2.85 -0.20 -5.50 -0.25z"/>
  <path d="M214.85 187.65 c-0.70 -0.65 -0.35 -1.75 0.45 -1.45 0.75 0.30 3.20 -1.85 3.20 -2.75 0 -0.25 -1.15 -0.45 -2.50 -0.45 -1.85 0 -2.60 -0.20 -2.85 -0.80 -0.40 -1.15 0.60 -1.60 4.35 -2 3.45 -0.35 4.60 -1.15 4.25 -2.95 -0.55 -2.60 -0.90 -14.15 -0.65 -22 0.05 -2.40 -0.40 -3.90 -1.15 -4.10 -0.50 -0.15 -1 -0.75 -1.15 -1.30 -0.40 -1.60 -0.35 -1.85 0.40 -1.85 0.40 0 0.85 -0.40 1 -0.85 0.20 -0.45 0.20 -8.80 0 -18.45 l-0.35 -17.60 -4.80 -0.35 c-13.15 -0.90 -25.05 -2.20 -25.90 -2.90 -0.85 -0.60 -0.85 -7.85 -0.05 -9.65 0.50 -1.05 3.25 -2.60 13.40 -7.70 13.55 -6.80 17 -8.90 17 -10.45 0 -0.50 0.40 -1.45 0.95 -2.10 l0.95 -1.15 1 2 c0.80 1.60 1.55 2.25 3.45 2.95 5.15 1.95 32.25 15.10 32.75 15.90 0.25 0.35 0.35 2.15 0.30 4.05 l-0.15 3.40 -2 0.80 c-1.10 0.45 -2.10 0.95 -2.25 1.10 -0.25 0.35 -6.65 3 -7.20 3 -0.15 0 -0.55 -0.95 -0.85 -2.10 l-0.60 -2.15 -0.35 1.90 c-0.20 1 -0.50 2 -0.65 2.15 -0.25 0.30 -14.10 1.15 -19.20 1.20 l-2.65 0 0 17.40 c0 9.55 0.15 17.85 0.30 18.50 0.20 0.60 0.65 1.10 1 1.10 0.40 0 0.70 0.35 0.70 0.75 0 0.40 -0.20 0.75 -0.40 0.75 -0.65 0 0.15 5.15 0.80 5.40 0.75 0.25 0.80 2.10 0.10 2.10 -0.35 0 -0.50 2.85 -0.45 8.40 0.10 11.30 0.20 11.90 2 12.55 1.55 0.55 2.45 2.20 2.45 4.60 0 1.55 -0.70 1.95 -1.20 0.70 -0.15 -0.40 -0.80 -0.75 -1.50 -0.75 -0.85 0 -1.30 0.35 -1.50 1.25 -0.40 1.50 -1.60 1.65 -1.95 0.25 -0.40 -1.50 -1.80 -1.20 -3.65 0.75 -0.90 0.95 -1.80 1.75 -1.95 1.75 -0.20 0 -0.65 0.35 -1.05 0.75 -0.85 0.80 -1.35 0.95 -1.85 0.40z m9.15 -7.15 c0 -0.25 -0.45 -0.50 -1 -0.50 -0.55 0 -1 0.25 -1 0.50 0 0.30 0.45 0.50 1 0.50 0.55 0 1 -0.20 1 -0.50z"/>
  <path d="M201 186.30 c0 -0.70 0.25 -1.40 0.50 -1.55 0.30 -0.15 0.50 -2.05 0.50 -4.25 0 -3.05 -0.15 -3.95 -0.80 -4.20 -1.70 -0.65 0.05 -1.30 3.60 -1.30 2.95 0 3.70 0.15 3.70 0.75 0 0.40 -0.35 0.75 -0.75 0.75 -0.60 0 -0.75 0.75 -0.75 3.70 0 3.25 0.15 3.85 1.05 4.50 2.20 1.55 0 2.80 -4.85 2.80 -2 0 -2.20 -0.10 -2.20 -1.20z"/>
  <path d="M181.50 169.25 c0 -1.40 0.20 -1.75 1 -1.75 0.80 0 1 0.35 1 1.75 0 1.40 -0.20 1.75 -1 1.75 -0.80 0 -1 -0.35 -1 -1.75z"/>
  <path d="M183 161.80 c0 -0.70 0.25 -1.40 0.50 -1.55 0.30 -0.15 0.50 0.10 0.50 0.55 0 0.75 0.20 0.70 1.25 -0.30 l1.25 -1.15 0 1.80 c0 1.80 -0.05 1.85 -1.75 1.85 -1.50 0 -1.75 -0.15 -1.75 -1.20z"/>
  <path d="M259.50 161.15 c0 -3.45 0.40 -4.15 2.35 -4.15 l1.70 0 -0.15 2.90 -0.15 2.85 -1.85 0.15 c-1.90 0.15 -1.90 0.15 -1.90 -1.75z"/>
  <path d="M71 153.30 c0 -1.25 0.25 -2.40 0.50 -2.55 0.30 -0.20 0.50 0.55 0.50 1.95 0 1.25 -0.20 2.40 -0.50 2.55 -0.30 0.20 -0.50 -0.55 -0.50 -1.95z"/>
  <path d="M242.95 150.95 c-0.40 -0.20 -1.75 -1.85 -2.95 -3.65 -1.45 -2.10 -2.80 -3.45 -3.75 -3.85 -3.60 -1.35 -3.80 -1.50 -3.65 -2.35 0.10 -0.55 0.70 -0.90 1.70 -1 1.30 -0.15 2.15 0.35 4.75 2.65 4.50 3.95 4.55 4 6.25 2.25 1.70 -1.75 2.25 -1.80 3.35 -0.60 1 1.10 1.10 2.60 0.25 2.60 -0.35 0.05 -1.25 0.90 -1.95 1.95 -1.40 2 -2.80 2.70 -4 2z"/>
  <path d="M204.90 146.80 c-0.80 -0.60 -0.75 -0.75 0.60 -2.25 0.85 -0.90 1.50 -1.80 1.50 -2.10 0 -0.25 0.90 -0.45 2 -0.45 1.10 0 2 0.25 2 0.50 0 0.30 -0.25 0.50 -0.55 0.50 -0.30 0 -0.45 0.30 -0.30 0.70 0.20 0.45 -0.25 0.95 -1.20 1.30 -0.85 0.40 -1.45 1 -1.45 1.55 0 1.10 -1.35 1.25 -2.60 0.25z"/>
  <path d="M256.50 140.75 c0 -1.45 0.40 -1.60 1.30 -0.35 0.60 0.75 0.60 0.75 0.35 -0.25 -0.20 -0.85 -0.05 -1.15 0.55 -1.15 0.55 0 0.80 0.45 0.80 1.50 0 1.35 -0.15 1.50 -1.50 1.50 -1.25 0 -1.50 -0.20 -1.50 -1.25z"/>
  <path d="M195 137.75 c0 -0.45 -0.55 -1 -1.25 -1.25 -1.05 -0.40 -1.25 -0.80 -1.25 -2.40 0 -1.05 0.25 -2.15 0.55 -2.45 0.30 -0.30 0.70 -1.30 0.90 -2.25 0.25 -1.25 0.65 -1.70 1.55 -1.80 0.70 -0.10 1.60 -0.50 2 -0.85 1.35 -1.10 3.40 -1.35 3.90 -0.45 0.55 1 0.20 2.70 -0.50 2.70 -0.30 0 -0.40 0.60 -0.25 1.35 0.35 2 -0.85 4.05 -2.50 4.25 -1 0.10 -1.40 0.45 -1.45 1.15 -0.10 2.40 -0.25 2.75 -0.95 2.75 -0.40 0 -0.75 -0.35 -0.75 -0.75z"/>
  <path d="M250.30 137.25 c0.25 -1 0.10 -1.25 -0.60 -1.30 -0.55 -0.05 -1.30 -0.10 -1.70 -0.15 -1.35 -0.10 -2.50 -3.30 -2 -5.50 0.20 -1.05 0.30 -2.20 0.15 -2.55 -0.15 -0.50 0.45 -0.80 2.05 -1 2.55 -0.40 3.20 -0.15 3.80 1.55 0.25 0.65 0.85 1.20 1.25 1.20 0.55 0 0.75 0.30 0.60 0.90 -0.15 0.45 -0.40 1.45 -0.55 2.25 -0.20 0.75 -0.50 1.35 -0.75 1.35 -0.25 0 -0.35 0.45 -0.20 1 0.15 0.55 0.60 1 0.95 1 1.05 0 0.85 1.40 -0.25 2 -0.55 0.25 -1.45 0.50 -2.05 0.50 -0.85 0 -0.95 -0.20 -0.70 -1.25z"/>
  <path d="M71 112.80 c0 -0.70 0.25 -1.40 0.50 -1.55 0.30 -0.15 0.50 0.25 0.50 0.95 0 0.70 -0.20 1.40 -0.50 1.55 -0.30 0.15 -0.50 -0.25 -0.50 -0.95z"/>
  <path d="M7.50 47.85 c0 -0.20 0.35 -0.50 0.75 -0.65 0.65 -0.25 0.75 -2.60 0.75 -17 0 -14.50 -0.10 -16.70 -0.75 -16.70 -0.40 0 -0.75 -0.35 -0.75 -0.75 0 -0.65 9.80 -0.75 85 -0.75 75.20 0 85 0.10 85 0.75 0 0.40 -0.35 0.75 -0.75 0.75 -0.65 0 -0.75 2.15 -0.75 16.30 0 15 0.05 16.40 0.85 17 0.50 0.35 0.80 0.75 0.65 0.85 -0.40 0.45 -170 0.65 -170 0.20z"/>
 </g>
 <g fill="#cceef7">
  <path d="M74.50 163.25 c0 -0.40 0.25 -0.75 0.55 -0.75 0.30 0 1 -0.55 1.55 -1.25 0.55 -0.70 1.15 -1.25 1.40 -1.25 0.25 0 1.50 -0.65 2.85 -1.45 6.30 -3.80 12.70 -7.55 12.95 -7.55 0.10 0 1.65 -0.85 3.35 -1.95 1.70 -1.05 4.70 -2.85 6.60 -3.95 1.95 -1.05 7.90 -4.55 13.25 -7.70 5.35 -3.15 11 -6.40 12.50 -7.25 3.55 -1.95 15.55 -8.90 31.40 -18.20 6.95 -4.10 13 -7.50 13.50 -7.55 0.80 -0.15 0.85 1.80 1 29 0.05 18.80 0.30 29.10 0.60 29.10 0.30 0 0.50 0.35 0.50 0.75 0 0.65 -6 0.75 -51 0.75 -45 0 -51 -0.10 -51 -0.75z"/>
  <path d="M71 153.30 c0 -2.50 0.05 -2.55 6 -5.90 1.25 -0.70 5.65 -3.25 9.75 -5.65 7.65 -4.40 9.05 -5.20 14.75 -8.50 1.80 -1 3.50 -2 3.75 -2.20 0.30 -0.25 1.75 -1.10 3.25 -1.90 1.50 -0.85 6 -3.45 10 -5.75 4 -2.35 9.40 -5.45 12 -7 2.60 -1.50 8 -4.65 12 -7 4 -2.30 8.60 -4.95 10.25 -5.90 1.65 -0.90 4.70 -2.70 6.75 -3.95 3.70 -2.30 3.75 -2.30 2.10 -2.45 -1.55 -0.15 -1.65 -0.20 -0.75 -0.85 1.20 -0.95 11.65 -1.05 11.65 -0.10 0 0.30 -0.50 0.85 -1.15 1.15 -1.90 0.90 -6.05 3.30 -7.45 4.25 -0.70 0.55 -1.45 0.95 -1.65 0.95 -0.15 0 -1.55 0.80 -3.05 1.75 -1.50 0.95 -2.85 1.75 -3 1.75 -0.15 0 -0.90 0.40 -1.60 0.95 -0.75 0.50 -2.90 1.75 -4.85 2.80 -1.90 1.05 -3.85 2.15 -4.25 2.50 -0.40 0.30 -4.10 2.50 -8.25 4.85 -4.10 2.35 -10.30 5.95 -13.75 7.90 -3.45 2 -7.05 4.10 -8 4.65 -2.15 1.20 -15.75 9.10 -21.25 12.35 -2.20 1.30 -4.85 2.85 -5.90 3.45 -4.35 2.45 -15 8.60 -16.10 9.35 l-1.25 0.80 0 -2.30z"/>
  <path d="M21.50 119.25 l0 -23.75 18.75 0 18.75 0 0 14.25 c0 12.35 -0.10 14.25 -0.75 14.25 -0.40 0 -0.75 -0.35 -0.75 -0.75 0 -1.25 -0.85 -0.90 -6.55 2.50 -6.55 3.95 -14.25 8.40 -17.95 10.40 -3.80 2.10 -7 4.30 -7 4.85 0 0.30 0.45 0.50 1 0.50 0.65 0 0.90 0.25 0.70 0.75 -0.25 0.55 -1.10 0.75 -3.25 0.75 l-2.95 0 0 -23.75z m12.20 13.95 c5.50 -3.25 12.20 -7.10 14.80 -8.65 2.60 -1.60 5.70 -3.30 6.85 -3.80 1.55 -0.75 2.15 -1.30 2.15 -2.10 0 -1.65 -1.25 -1.45 -4.75 0.65 -1.65 1.05 -6.50 3.85 -10.75 6.35 -4.25 2.45 -8.55 4.95 -9.50 5.50 -0.95 0.55 -2.20 1.25 -2.75 1.55 -6.30 3.60 -6.75 3.90 -6.75 5.10 0 0.65 0.15 1.20 0.30 1.20 0.20 0 4.85 -2.60 10.40 -5.80z"/>
  <path d="M71.10 112.75 c0.15 -1.20 1.45 -2.15 11.55 -8 6.30 -3.65 11.70 -6.90 12 -7.20 0.40 -0.40 0.20 -0.55 -0.85 -0.55 -1.20 0 -1.35 -0.10 -0.80 -0.75 0.45 -0.55 1.65 -0.75 4.55 -0.75 3.20 0 3.95 0.15 3.95 0.75 0 0.40 -0.25 0.75 -0.55 0.75 -0.30 0 -2.60 1.20 -5.10 2.70 -9 5.30 -16.65 9.70 -19.10 11.05 -1.35 0.75 -3.25 1.85 -4.15 2.40 l-1.70 1 0.20 -1.40z"/>
  <path d="M71 102.80 c0 -4.80 -0.15 -5.80 -0.75 -5.80 -0.40 0 -0.75 -0.35 -0.75 -0.75 0 -0.65 1.60 -0.75 11.25 -0.75 8.65 0 11.25 0.15 11.25 0.65 0 0.30 -0.70 0.95 -1.50 1.35 -2.65 1.35 -9.25 5.15 -10 5.75 -0.40 0.35 -2.70 1.65 -5.10 2.95 l-4.40 2.40 0 -5.80z"/>
 </g>
 <g fill="#dca97a">
  <path d="M240.50 189 c-0.45 -0.85 -0.70 -0.95 -1.30 -0.45 -0.45 0.35 -0.90 0.40 -1.20 0.15 -0.60 -0.65 -3.85 -10.70 -4.60 -14.20 -0.70 -3.40 0.05 -7 1.40 -7 0.45 0 0.90 -0.40 1.05 -0.95 0.20 -0.80 0.60 -0.90 3.45 -0.65 2.20 0.15 3.20 0.05 3.20 -0.35 0 -1.10 1.40 -0.55 1.70 0.70 0.25 1 0.65 1.25 1.85 1.25 0.85 0 1.60 0.30 1.75 0.75 0.45 1.05 1.20 0.95 1.20 -0.20 0 -1.05 -2.65 -3.55 -3.80 -3.55 -0.40 0 -0.70 -0.35 -0.70 -0.75 0 -0.55 0.65 -0.75 2.65 -0.75 4.55 0 12.35 -2.50 12.35 -3.95 0 -0.25 -1.60 -0.60 -3.55 -0.75 -3.90 -0.40 -5.95 -1.10 -5.95 -2.05 0 -0.35 0.50 -0.75 1.05 -0.90 1 -0.25 1.05 -0.50 0.70 -3.15 -0.50 -4.10 -1 -5.20 -2.40 -5.20 -0.65 0 -1.70 -0.55 -2.35 -1.25 l-1.15 -1.25 1.75 -2.60 c0.95 -1.45 2.10 -3.25 2.55 -4 1.70 -2.75 4.70 -2.15 6.90 1.40 0.85 1.40 1.20 1.60 1.75 1.15 0.55 -0.45 0.70 -0.35 0.70 0.65 0 2.55 2.20 3.25 2.70 0.80 0.20 -1.10 0.45 -1.45 0.85 -1.05 0.30 0.30 0.70 7.85 0.95 20.70 0.25 11.10 0.60 20.95 0.80 21.85 0.25 1.25 0.15 1.60 -0.45 1.60 -0.45 0 -0.90 -0.40 -1.05 -0.85 -0.50 -1.65 -1.25 -7.40 -1.60 -12.30 l-0.30 -4.90 -2.35 0.15 -2.30 0.15 0 3.50 c0.05 1.95 0.25 4.50 0.45 5.70 0.40 1.95 0.35 2.15 -0.50 1.95 -1.05 -0.20 -2.50 -3.95 -3.10 -8.15 -0.30 -2 -0.55 -2.55 -1.40 -2.65 -0.95 -0.15 -1.10 0.15 -1.35 3.60 -0.30 3.60 -0.25 4 2.15 10.60 1.35 3.75 2.35 7.05 2.20 7.25 -0.50 0.80 -2.15 0.45 -2.45 -0.50 -0.35 -1.20 -3 -1.70 -6.55 -1.30 -2.35 0.30 -2.65 0.50 -2.55 1.45 0.15 1.55 -2.35 1.80 -3.15 0.30z m21.45 -29.40 c0 -1.20 -0.05 -1.25 -0.45 -0.35 -0.60 1.40 -0.60 2.35 0 2 0.30 -0.15 0.50 -0.90 0.45 -1.65z m0.05 -11.30 c0 -0.70 -0.25 -1.40 -0.55 -1.55 -0.75 -0.50 -0.90 -0.20 -0.60 1.40 0.35 1.70 1.15 1.80 1.15 0.15z"/>
  <path d="M223.40 185.90 c-0.10 -2 -0.40 -3.15 -0.80 -3.30 -0.40 -0.10 -1.60 0.80 -2.75 2 -1.85 2 -3.75 3.40 -4.55 3.40 -0.85 0 -0.15 -1.40 0.95 -1.90 0.65 -0.30 1.75 -1.65 2.45 -2.95 0.65 -1.30 2 -3.30 3 -4.40 l1.80 -2 0 -8.30 c0 -9.55 -0.25 -11.25 -1.55 -11.60 -1.25 -0.35 -1.20 -1.20 0.10 -1.60 0.80 -0.25 1 -0.70 0.85 -2.15 l-0.15 -1.85 -6 -0.30 c-3.30 -0.20 -6.50 -0.35 -7.10 -0.40 -0.80 -0.05 -1.15 -0.35 -1.15 -1 0 -0.85 0.50 -1 3.65 -1.30 1.95 -0.15 8.80 -0.25 15.10 -0.15 9.70 0.15 11.50 0.25 11.50 0.90 0 0.90 -2.15 1.35 -8.85 1.80 l-5.40 0.35 0 1.60 c0 1.10 0.35 1.90 1.15 2.40 l1.10 0.80 -1.20 0.95 c-1 0.85 -1.15 1.25 -0.90 2.90 0.20 1.10 0.35 5.25 0.40 9.35 0.05 5.75 0.20 7.55 0.80 8.10 0.40 0.40 0.95 0.75 1.20 0.75 0.25 0 0.95 0.50 1.50 1.05 1 1 1.15 1 1.55 0.25 0.75 -1.30 1.40 -0.90 1.40 0.90 0 1.05 -0.30 1.80 -0.75 2 -0.40 0.15 -0.75 0.75 -0.75 1.30 0 1.70 -1.20 1.10 -2.25 -1.10 -1.70 -3.55 -2.25 -3.05 -2.25 2.05 0 4.20 -0.10 4.55 -1 4.55 -0.80 0 -0.95 -0.40 -1.10 -3.10z"/>
  <path d="M201 185.60 c0 -0.60 1.70 -2.10 2.40 -2.10 0.35 0 0.60 0.25 0.60 0.50 0 0.30 0.35 0.50 0.75 0.50 0.40 0 0.75 0.35 0.75 0.75 0 0.60 -0.20 0.65 -1.30 0.15 -1 -0.45 -1.50 -0.45 -2.25 0 -0.50 0.35 -0.95 0.40 -0.95 0.20z"/>
  <path d="M180.70 183.40 c0.15 -0.90 0.35 -2.45 0.50 -3.40 0.15 -0.95 0.40 -9.40 0.55 -18.75 0.15 -9.35 0.40 -17.75 0.55 -18.60 0.30 -1.95 1.20 -2.20 1.20 -0.40 0 0.70 0.20 1.25 0.45 1.25 1.25 0 2.05 -0.70 2.05 -1.80 0 -1.70 1.85 -1.65 2.50 0.10 0.65 1.65 0.65 4.70 0 4.70 -0.30 0 -0.50 1.60 -0.50 3.75 0 3 -0.15 3.75 -0.75 3.75 -0.40 0 -0.75 -0.35 -0.75 -0.75 0 -0.90 -0.25 -0.90 -1.55 -0.25 -0.80 0.45 -0.95 1.10 -0.95 4.50 0 2.20 0.15 4 0.30 4 0.65 0 2.15 -2.35 2.20 -3.35 0 -1.65 1.60 -1.45 2.90 0.35 1.40 1.85 3.15 2.75 6.30 3.25 3.75 0.50 4.80 1.15 4.80 2.90 0 1.10 -0.15 1.35 -0.60 0.95 -0.45 -0.35 -0.95 -0.25 -1.75 0.40 -1.05 0.85 -1.15 1.30 -1.15 6.35 0 2.95 0.35 6.95 0.75 8.85 1.15 5.35 0 5.20 -1.60 -0.20 -0.45 -1.50 -0.95 -5.10 -1.10 -8 -0.30 -4.85 -0.40 -5.25 -1.35 -5.40 -0.95 -0.15 -1.15 0.25 -1.65 3 -0.90 4.60 -1.60 6.85 -2.45 7.55 -0.65 0.50 -0.70 0.40 -0.50 -0.90 1.20 -6.60 1.55 -9.30 1.25 -9.60 -0.20 -0.15 -1.60 -0.40 -3.10 -0.55 -3.15 -0.25 -2.90 -0.80 -3.70 7.40 -0.70 7.15 -1.45 10.50 -2.35 10.50 -0.55 0 -0.70 -0.40 -0.50 -1.60z m4.70 -34.70 c1.20 -0.80 1.45 -1.95 0.55 -2.45 -0.70 -0.45 -2.45 1.20 -2.45 2.35 0 1.10 0.45 1.15 1.90 0.10z"/>
  <path d="M2.80 50.75 c0.45 -0.70 1.30 -1.50 1.80 -1.80 0.90 -0.45 0.95 -0.35 0.80 1.15 -0.15 1.45 -0.35 1.65 -1.80 1.80 l-1.65 0.15 0.85 -1.30z"/>
 </g>
 <g fill="#aa8a68">
  <path d="M18.50 141.25 l0 -48.75 21.75 0 21.75 0 0 48.75 0 48.75 -21.75 0 -21.75 0 0 -48.75z m39 -22 l0 -22.25 -17.25 0 -17.25 0 0 22.25 0 22.25 17.25 0 17.25 0 0 -22.25z"/>
  <path d="M227 188.55 c0 -0.25 0.35 -1.40 0.75 -2.55 0.40 -1.15 0.75 -2.75 0.75 -3.55 0 -0.75 0.30 -1.60 0.65 -1.80 0.40 -0.20 1.55 -3.05 2.60 -6.25 1.10 -3.20 2.05 -5.75 2.15 -5.65 0.10 0.10 0.50 1.75 0.90 3.75 0.40 1.95 1.65 6.25 2.75 9.55 1.10 3.25 1.85 6.20 1.70 6.45 -0.45 0.75 -2.75 0.60 -3.55 -0.25 -0.50 -0.45 -1.70 -0.75 -3.20 -0.75 -1.65 0 -2.50 0.25 -2.70 0.75 -0.30 0.80 -2.80 1.05 -2.80 0.30z"/>
  <path d="M202 186.65 c0 -0.35 0.40 -0.65 0.95 -0.65 0.50 0 1.65 -0.15 2.50 -0.30 1.35 -0.30 1.55 -0.20 1.55 0.75 0 1 -0.20 1.10 -2.50 0.95 -1.60 -0.10 -2.50 -0.40 -2.50 -0.75z"/>
  <path d="M200.95 176.15 c0 -0.25 0 -2.25 0.05 -4.55 0.10 -5.95 -1.25 -7.55 -6.75 -8.35 -3.25 -0.50 -4.90 -1.35 -6.50 -3.45 -1.20 -1.60 -1.30 -2.05 -1.35 -8.10 -0.10 -4.65 0.05 -6.45 0.50 -6.60 0.85 -0.25 0.75 -2.45 -0.15 -2.80 -1.25 -0.45 -0.85 -1.50 1 -2.70 1.15 -0.75 2.25 -2.15 3.15 -4 0.75 -1.55 1.50 -2.90 1.75 -3 0.20 -0.10 0.35 -0.50 0.35 -0.90 0 -0.40 0.50 -0.70 1.25 -0.70 1.45 0 1.55 0.40 0.50 1.80 -1 1.30 -0.95 1.55 0.65 2.30 0.95 0.50 1.30 1 1.20 1.75 -0.10 0.60 0.20 1.60 0.60 2.25 0.40 0.65 1.10 3.30 1.60 5.90 0.45 2.60 0.90 4.85 1.05 4.95 0.10 0.15 1.40 -1 2.90 -2.45 2.30 -2.30 2.90 -2.65 3.65 -2.20 1.65 1.05 1.20 2.20 -2.65 6.45 -4.10 4.50 -5.70 5.25 -6.75 3.25 -0.55 -1 -1.50 -1.35 -1.50 -0.55 0 0.25 0.40 0.90 0.90 1.50 0.65 0.75 1.80 1.15 4.90 1.50 7.55 0.95 8.45 2.05 8.45 10.55 0 3.15 -0.15 6.35 -0.40 7.15 -0.35 1.35 -0.45 1.35 -4.35 1.35 -2.20 0 -4 -0.15 -4.05 -0.35z"/>
  <path d="M207.35 143.30 c-0.40 -0.95 0.05 -1.30 1.75 -1.30 1.60 0 1.85 0.75 0.45 1.50 -1.30 0.70 -1.90 0.65 -2.20 -0.20z"/>
  <path d="M252.50 132.40 c0 -0.90 -0.25 -1.40 -0.70 -1.40 -0.40 0 -1.05 -0.60 -1.40 -1.35 -0.55 -1.10 -1 -1.40 -2.35 -1.40 -0.95 0 -1.80 -0.25 -1.90 -0.60 -0.30 -0.90 3.95 -1.35 6.10 -0.65 1.85 0.60 1.85 0.65 1.55 2.85 -0.15 1.20 -0.50 2.60 -0.80 3.05 -0.40 0.70 -0.45 0.60 -0.50 -0.50z"/>
  <path d="M0 70.15 c0.05 -15.10 0.20 -16.25 2.80 -19.30 2.75 -3.25 4.75 -3.85 13.20 -3.85 7 0 7.50 0.05 7.50 0.95 0 0.55 -0.60 1.15 -1.45 1.50 -1.80 0.80 -4.35 3.40 -5 5.20 -0.35 0.90 -0.55 6.75 -0.55 15.40 l0 13.95 -8.25 0 -8.25 0 0 -13.85z"/>
  <path d="M31 68.55 c0 -8.50 0.15 -16.15 0.30 -17.05 0.20 -0.85 1.05 -2.35 1.95 -3.30 l1.60 -1.70 11.35 0 c10.45 0 11.30 0.05 11.30 0.90 -0.05 0.50 -0.85 1.25 -2.10 1.85 -4.20 2 -4.15 1.80 -4.30 19.30 l-0.15 15.45 -9.95 0 -10 0 0 -15.45z"/>
  <path d="M67 66.90 c0 -16.20 0.05 -17.25 1 -18.75 l1 -1.65 10 0 c9.65 0 10 0.05 10 1 0 0.55 -0.30 1 -0.65 1 -0.40 0 -1.05 0.40 -1.50 0.90 -0.75 0.85 -0.85 2.80 -0.85 17.75 l0 16.85 -9.50 0 -9.50 0 0 -17.10z"/>
  <path d="M100 67.10 c0 -15.80 -0.05 -17 -0.90 -17.75 -0.50 -0.50 -1.20 -0.85 -1.50 -0.85 -0.35 0 -0.60 -0.45 -0.60 -1 0 -0.95 0.35 -1 9.75 -1 9.35 0 9.75 0.05 10.75 1.10 0.95 1.05 1 1.65 1 18.75 l0 17.65 -9.25 0 -9.25 0 0 -16.90z"/>
  <path d="M135 69.40 c0 -13.55 -0.05 -14.75 -1 -16.65 -0.55 -1.15 -1.65 -2.55 -2.50 -3.15 -0.80 -0.65 -1.50 -1.55 -1.50 -2.10 0 -0.95 0.40 -1 10.40 -1 11.40 0 11.15 -0.05 13.30 3.20 l1.30 1.95 0 16.15 0 16.20 -10 0 -10 0 0 -14.60z"/>
  <path d="M169.40 69.55 l-0.15 -14.45 -1.50 -2.20 c-0.95 -1.30 -2.40 -2.60 -3.90 -3.35 -1.55 -0.75 -2.35 -1.45 -2.35 -2.10 0 -0.90 0.45 -0.95 7.40 -0.95 6.80 0 7.60 0.10 9.90 1.20 3 1.45 4.85 3.25 6.20 6 0.95 2 1 3.05 1 16.20 l0 14.10 -8.25 0 -8.20 0 -0.15 -14.45z"/>
  <path d="M105.85 37.20 c-0.15 -3.20 -0.40 -5.90 -0.55 -6.05 -0.15 -0.20 -1.15 0.10 -2.25 0.55 -2.35 1.10 -4.05 0.45 -4.05 -1.40 0 -1.15 -0.05 -1.15 -3.60 0.75 -4.15 2.20 -5.55 2.40 -6.55 0.95 -0.70 -1 -0.80 -1 -5.40 1.65 -2.60 1.50 -6.80 3.45 -9.40 4.35 l-4.70 1.60 -2.15 -1 c-1.20 -0.60 -2.55 -1.65 -3 -2.40 -0.75 -1.10 -0.80 -1.60 -0.30 -3.65 0.85 -3.30 4.80 -6.90 10.75 -9.75 5.65 -2.75 12.35 -4.60 12.35 -3.40 0 0.20 -1.95 0.85 -4.35 1.50 -8.55 2.20 -16.45 7.40 -17.70 11.60 -0.75 2.50 -0.45 3.15 2.10 4.80 l2.15 1.30 3.25 -1.10 c4.20 -1.45 9.20 -3.90 14.30 -7.05 4.10 -2.45 9 -4.45 11.05 -4.45 1.40 0 2.80 2.30 2.35 3.90 -0.40 1.60 0.90 1.85 3.25 0.65 1.95 -1 2 -1.05 2.35 -4.40 0.50 -5 2.50 -7.60 5.90 -7.65 1 0 1.85 0.25 1.85 0.50 0 0.30 -0.70 0.50 -1.55 0.50 -1.10 0 -2.05 0.50 -3.25 1.70 -1.55 1.55 -1.70 1.95 -1.70 4.75 l0 3.05 1.40 -0.30 c2.35 -0.50 2.45 -0.60 2.75 -2.15 0.60 -2.90 4.35 -5.40 6.30 -4.20 0.45 0.30 0.85 1.15 0.95 2 0.20 1.75 -1 2.95 -3.75 3.90 -2.35 0.80 -2.40 1.75 -0.15 2.90 1.70 0.85 3.30 0.90 5.20 0.10 0.70 -0.30 0.90 -0.25 0.70 0.30 -0.70 2.10 -6.45 1.55 -8.70 -0.90 -1.05 -1.15 -1.40 -1.25 -2.80 -0.85 l-1.65 0.50 -0.15 6.35 c-0.05 3.50 -0.30 6.35 -0.55 6.35 -0.20 0 -0.55 -2.60 -0.70 -5.80z m-11.85 -6.45 c3.55 -1.80 5.45 -3.75 3.60 -3.75 -1.80 0 -6.10 1.55 -7.45 2.70 -1.20 1 -1.25 1.30 -0.70 2 0.35 0.45 0.75 0.80 0.85 0.80 0.15 0 1.80 -0.80 3.70 -1.75z m22.40 -4.55 c1.45 -0.95 1.25 -2.40 -0.35 -2.60 -1.40 -0.20 -3.55 1.65 -3.55 3.05 0 0.80 0.25 0.90 1.40 0.60 0.75 -0.15 1.85 -0.65 2.50 -1.05z"/>
  <path d="M5.50 10.25 c0 -0.55 -0.60 -0.75 -2.25 -0.75 l-2.25 0 0 -4.75 0 -4.75 92 0 92 0 0 4.75 0 4.75 -2.50 0 c-1.90 0 -2.50 0.20 -2.50 0.75 0 0.65 -10.05 0.75 -87.25 0.75 -77.20 0 -87.25 -0.10 -87.25 -0.75z"/>
 </g>
 <g fill="#f04a03">
  <path d="M258 131.85 c0 -0.95 1.05 -1.85 2.10 -1.85 1 0 1.15 -0.30 1.65 -3.20 l0.30 -1.95 1.75 1.70 c1.35 1.30 1.60 1.75 0.95 1.85 -0.45 0.10 -1.10 -0.10 -1.50 -0.40 -0.65 -0.55 -0.75 -0.30 -0.75 1.35 0 1.05 -0.25 2.20 -0.60 2.55 -0.80 0.80 -3.90 0.80 -3.90 -0.05z"/>
  <path d="M269.70 123.75 c-0.40 -1.05 0.25 -1.85 1.30 -1.50 0.90 0.30 1.20 -0.10 2 -2.80 0.35 -1.20 0.25 -1.40 -1.55 -2.10 -2.20 -0.85 -2.15 -0.90 -2.90 2.05 -0.75 2.60 -2.55 3.80 -3.90 2.45 -0.65 -0.65 -0.70 -0.95 -0.15 -1.55 0.35 -0.45 1.10 -0.80 1.75 -0.80 1.10 0 2.25 -1.70 2.25 -3.25 0 -0.40 0.15 -0.75 0.30 -0.75 0.70 0 5 1.15 5.30 1.45 0.50 0.40 -0.80 5.85 -1.60 6.80 -0.80 0.95 -2.45 0.95 -2.80 0z"/>
  <path d="M257.55 116.85 c-0.85 -0.85 -0.65 -1.75 0.65 -2.65 1.05 -0.65 1.15 -0.95 0.75 -2 -0.25 -0.70 -0.45 -1.70 -0.45 -2.20 0 -0.85 0.15 -0.90 1.40 -0.40 1.50 0.65 3.20 1.95 2.90 2.25 -0.10 0.10 -0.75 -0.10 -1.50 -0.40 -1.75 -0.80 -1.95 -0.45 -1.05 1.75 0.55 1.30 0.65 2.10 0.30 2.75 -0.65 1.15 -2.25 1.65 -3 0.90z"/>
  <path d="M272.85 108.45 c-1.20 -0.70 -1.10 -2.50 0.15 -2.80 0.65 -0.20 0.95 -0.55 0.80 -1.10 -0.15 -0.45 -0.40 -1.65 -0.60 -2.70 -0.30 -1.80 -0.25 -1.90 0.60 -1.45 0.55 0.30 1.35 0.65 1.85 0.80 0.45 0.15 0.85 0.50 0.85 0.80 0 0.35 -0.30 0.40 -0.95 0 -1.30 -0.65 -1.70 0.05 -1.05 1.75 1.15 3 0.20 5.70 -1.65 4.70z"/>
  <path d="M265.65 103.70 c-0.75 -1.20 -0.75 -1.45 -0.10 -2.65 0.60 -1.05 1.10 -1.30 2.60 -1.25 1.75 0.05 1.85 0 2.55 -2.50 0.40 -1.40 0.90 -3.15 1.05 -3.90 0.40 -1.60 1.75 -1.90 1.75 -0.40 0 0.60 0.50 1.25 1.25 1.60 1.30 0.60 2.10 2.40 1.50 3.40 -0.45 0.75 -1.25 0.15 -1.25 -1 0 -0.80 -0.90 -1.50 -1.95 -1.50 -0.25 0 -0.90 1.90 -1.50 4.25 -1.15 4.35 -1.85 5.25 -4 5.25 -0.55 0 -1.40 -0.60 -1.90 -1.30z"/>
 </g>
 <g fill="#854a27">
  <path d="M201.10 186 c0.15 -1.10 0.40 -1.25 2.40 -1.40 1.20 -0.10 2.50 -0.40 2.85 -0.70 0.80 -0.65 0.85 0.20 0.05 1 -0.45 0.45 -0.45 0.60 -0.05 0.60 0.35 0 0.70 -0.20 0.85 -0.45 0.55 -0.85 3.05 0.20 3.05 1.25 0 0.85 -0.40 0.95 -4.65 0.95 l-4.65 0 0.15 -1.25z m3.40 -0.50 c-1 -0.65 -2.35 -0.65 -2.75 0 -0.20 0.30 0.45 0.50 1.60 0.50 1.40 0 1.70 -0.15 1.15 -0.50z"/>
  <path d="M121.90 167.15 l-54.40 -0.15 0 -2.25 0 -2.25 54.50 0 54.50 0 0 2.50 c0 1.40 -0.05 2.45 -0.10 2.40 -0.10 -0.10 -24.60 -0.20 -54.50 -0.25z"/>
  <path d="M235.90 164.90 c-0.35 -4.85 -0.60 -4.60 7.15 -7.15 7.30 -2.40 8.40 -2.55 10.05 -1.70 0.55 0.30 2.70 0.55 4.75 0.55 l3.75 -0.05 -0.25 2.10 c-0.20 1.25 -0.70 2.45 -1.35 2.95 -1.65 1.30 -6.35 2.50 -11.25 2.85 -4.45 0.30 -4.50 0.30 -4.65 1.70 -0.15 1.35 -0.20 1.35 -4.10 1.35 l-3.90 0 -0.20 -2.60z"/>
  <path d="M52.85 151.10 c-1.65 -1.80 -0.40 -4.60 2 -4.60 1.25 0 2.65 1.50 2.65 2.85 0 2.30 -3.10 3.45 -4.65 1.75z"/>
  <path d="M207.35 143.20 c-0.60 -0.65 0.20 -1.20 1.70 -1.20 1 0 1.45 0.20 1.35 0.65 -0.25 0.65 -2.50 1.10 -3.05 0.55z"/>
  <path d="M186.15 141.75 c-0.65 -1.75 0.25 -5.30 1.80 -7.15 0.85 -1 2.25 -3 3.05 -4.40 2.20 -3.70 3.65 -5.10 5.80 -5.50 2.50 -0.45 4.40 0.55 4.60 2.55 0.15 1.25 0.10 1.35 -0.60 0.80 -0.70 -0.60 -1 -0.55 -1.85 0.25 -0.60 0.55 -1.55 0.95 -2.15 0.95 -0.75 0 -1.10 0.35 -1.20 1.25 -0.10 0.70 -0.40 1.50 -0.65 1.80 -0.25 0.30 -1.25 2.15 -2.20 4.10 -1.20 2.50 -2.25 3.90 -3.60 4.80 -2.20 1.50 -2.60 1.60 -3 0.55z"/>
  <path d="M233.35 141.15 c-0.80 -0.75 -0.25 -1.20 1.25 -1.05 2.05 0.20 2.50 1.40 0.55 1.40 -0.85 0 -1.65 -0.15 -1.80 -0.35z"/>
  <path d="M67.50 94.75 l0 -2.25 54.50 0 54.50 0 0 2.25 0 2.25 -54.50 0 -54.50 0 0 -2.25z"/>
  <path d="M15 69.30 c0 -9.20 0.20 -15.25 0.55 -16.15 0.70 -1.90 2.80 -4 5.20 -5.30 1.75 -0.95 3 -1.10 9.65 -1.25 4.15 -0.10 7.60 0 7.60 0.25 0 0.25 -0.65 0.85 -1.50 1.30 -0.80 0.50 -1.95 1.60 -2.60 2.50 -1.15 1.60 -1.15 1.85 -1.30 17.50 l-0.15 15.85 -8.75 0 -8.70 0 0 -14.70z"/>
  <path d="M49.60 67.80 c0.15 -18.40 0.05 -17.95 4.40 -20.15 2 -1.05 2.90 -1.15 9.85 -1.15 6.45 0 7.65 0.10 7.65 0.75 0 0.40 -0.25 0.75 -0.50 0.75 -0.30 0 -0.95 0.75 -1.50 1.65 -0.95 1.50 -1 2.55 -1 18 l0 16.35 -9.50 0 -9.55 0 0.15 -16.20z"/>
  <path d="M84.50 66.35 c0 -21.55 -0.85 -19.60 8.50 -19.60 9.35 0 8.50 -1.95 8.50 19.60 l0 17.65 -8.50 0 -8.50 0 0 -17.65z"/>
  <path d="M117 67.05 c0 -16.95 0 -16.95 -1.10 -18 -0.65 -0.60 -1.60 -1.40 -2.15 -1.80 -0.90 -0.65 0 -0.70 8.25 -0.75 l9.25 0 1.90 1.75 c3.30 3 3.35 3.45 3.35 20.50 l0 15.25 -9.75 0 -9.75 0 0 -16.95z"/>
  <path d="M153.50 68.60 l0 -15.45 -1.40 -2.10 c-0.80 -1.15 -2.20 -2.60 -3.15 -3.20 l-1.70 -1.10 7.55 -0.15 c7.40 -0.10 7.60 -0.10 10.25 1.25 1.70 0.90 3.20 2.20 4.20 3.55 l1.50 2.20 0.15 15.20 0.15 15.20 -8.80 0 -8.75 0 0 -15.40z"/>
  <path d="M54.95 29.70 c-0.85 -1.05 0 -2.45 1.55 -2.45 1.55 0 2.40 1.40 1.55 2.45 -0.40 0.45 -1.05 0.80 -1.55 0.80 -0.50 0 -1.15 -0.35 -1.55 -0.80z"/>
  <path d="M127.95 29.70 c-0.85 -1.05 0 -2.45 1.55 -2.45 1.55 0 2.40 1.40 1.55 2.45 -0.40 0.45 -1.05 0.80 -1.55 0.80 -0.50 0 -1.15 -0.35 -1.55 -0.80z"/>
  <path d="M5.50 11.50 l0 -2 87.25 0 87.25 0 0 2 0 2 -87.25 0 -87.25 0 0 -2z"/>
 </g>
</svg>