<?xml version="1.0" encoding="UTF-8"?>
<svg version="1.1" xmlns="http://www.w3.org/2000/svg" width="554" height="381">
<path d="M0 0 C182.82 0 365.64 0 554 0 C554 125.73 554 251.46 554 381 C371.18 381 188.36 381 0 381 C0 255.27 0 129.54 0 0 Z " fill="none" transform="translate(0,0)"/>
<path d="M0 0 C3.74869537 2.768388 7.17138316 5.94810076 9.625 9.9375 C10 12.875 10 12.875 9.625 14.9375 C7.03087545 14.56532367 5.89789007 14.25721303 4.16796875 12.23046875 C3.72066406 11.53566406 3.27335937 10.84085938 2.8125 10.125 C-0.07807435 6.11990071 -2.57877113 3.41679664 -7.375 1.9375 C-15.40821002 0.63982761 -21.76891451 2.27557834 -28.375 6.9375 C-48.91323537 24.00899777 -59.09226532 51.02292639 -62.375 76.9375 C-63.78073019 95.17499957 -62.36560368 116.45906015 -50.21875 131.22265625 C-41.780568 139.07088061 -33.66169624 141.50538595 -22.46875 141.28125 C-16.95760828 140.9778844 -12.86732692 139.0804526 -8.375 135.9375 C-7.7665625 135.52628906 -7.158125 135.11507812 -6.53125 134.69140625 C4.48066442 126.25728089 14.12138497 110.33906736 18.8125 97.3125 C20.59448574 92.56053802 22.12231759 90.43899023 26.625 87.9375 C29.19227995 87.66552492 31.58590692 87.68043824 34.16015625 87.859375 C36.8020829 87.94311277 39.05961759 87.54111939 41.625 86.9375 C41.67398438 87.79214844 41.72296875 88.64679688 41.7734375 89.52734375 C41.84820312 90.63207031 41.92296875 91.73679687 42 92.875 C42.06960938 93.97714844 42.13921875 95.07929688 42.2109375 96.21484375 C42.41589844 97.56255859 42.41589844 97.56255859 42.625 98.9375 C46.87272444 101.06136222 50.54816722 100.28106094 54.90625 98.890625 C61.26655396 96.73952264 61.26655396 96.73952264 66.625 92.9375 C67.1302936 90.96338642 67.1302936 90.96338642 67.37109375 88.67578125 C67.48437012 87.81162598 67.59764648 86.9474707 67.71435547 86.05712891 C67.82924316 85.13077637 67.94413086 84.20442383 68.0625 83.25 C74.29452918 36.93808579 74.29452918 36.93808579 88.625 25.90234375 C92.4210899 24.07102694 96.57342502 23.84669135 100.625 24.9375 C104.04370787 28.6364044 104.09817158 31.40378475 103.94091797 36.25732422 C103.42216129 40.65833718 101.93378735 44.45224958 100.1875 48.5 C99.82986572 49.35770996 99.47223145 50.21541992 99.10375977 51.09912109 C94.18068476 62.65987033 88.68203396 74.0492536 80.7421875 83.859375 C79.40222386 85.91766714 79.40222386 85.91766714 79.76953125 88.47265625 C80.66824304 91.06209525 81.62654086 92.58480552 83.4375 94.625 C83.93894531 95.20636719 84.44039062 95.78773438 84.95703125 96.38671875 C86.7775698 98.07935061 88.30774788 99.04280806 90.625 99.9375 C93.95818673 99.76206912 96.56826181 99.59340647 99.4375 97.8125 C100.85489994 95.80013513 100.85489994 95.80013513 101.4375 92.5 C102.625 88.9375 102.625 88.9375 105.25 86.5 C109.589539 84.49095417 111.87875958 84.40163415 116.625 84.9375 C119.125 86.4375 119.125 86.4375 120.625 87.9375 C119.37523244 91.59066671 118.95401247 92.71815836 115.625 94.9375 C113.36328125 94.9140625 113.36328125 94.9140625 110.9375 94.5625 C110.12925781 94.45164062 109.32101562 94.34078125 108.48828125 94.2265625 C107.87339844 94.13117188 107.25851562 94.03578125 106.625 93.9375 C107.615 97.4025 107.615 97.4025 108.625 100.9375 C115.10373819 102.58084528 118.74966014 101.01351166 124.5625 98 C125.73135742 97.42088867 125.73135742 97.42088867 126.92382812 96.83007812 C128.83218639 95.88175285 130.72975617 94.91177045 132.625 93.9375 C129.77910233 100.18721991 123.54131637 102.67948117 117.4375 105.3125 C113.20550723 106.25294284 109.56819444 107.02675157 105.625 104.81640625 C103.90641044 103.59329715 102.25906622 102.27143161 100.625 100.9375 C99.614375 101.618125 98.60375 102.29875 97.5625 103 C93.63525568 105.25438163 91.0407692 105.12636094 86.625 103.9375 C85.635 103.2775 84.645 102.6175 83.625 101.9375 C84.2025 102.96875 84.78 104 85.375 105.0625 C89.86485273 114.12238139 93.25586712 124.76856387 91.625 134.9375 C89.12207602 142.18896199 89.12207602 142.18896199 85.625 143.9375 C82.05214902 144.33448344 80.14834347 144.23655341 77 142.4375 C67.30272699 132.22984419 66.18105859 116.2373545 66.42089844 102.8815918 C66.4744219 100.89978281 66.547482 98.91851555 66.625 96.9375 C65.64917969 97.43121094 64.67335938 97.92492187 63.66796875 98.43359375 C62.38286595 99.08083531 61.09770675 99.72796488 59.8125 100.375 C58.84860352 100.86323242 58.84860352 100.86323242 57.86523438 101.36132812 C52.40311056 104.10654061 47.80663103 105.83389471 41.625 104.9375 C39.31648439 103.82455248 37.64547316 102.55387853 35.625 100.9375 C34.4803125 102.113125 34.4803125 102.113125 33.3125 103.3125 C28.6410705 107.8752916 28.6410705 107.8752916 24.5625 108.125 C21.625 107.9375 21.625 107.9375 19.625 106.9375 C19.2846875 107.61554688 18.944375 108.29359375 18.59375 108.9921875 C14.94468865 115.99916169 10.71528246 121.91795705 5.625 127.9375 C4.90376953 128.89462891 4.90376953 128.89462891 4.16796875 129.87109375 C-1.87404521 137.68914639 -11.81468641 143.56844869 -21.375 145.9375 C-32.9660225 147.32556072 -41.92974002 144.2672522 -51.34375 137.62109375 C-57.94612935 132.14873702 -61.16654159 124.71452419 -64.375 116.9375 C-64.72820312 116.10476563 -65.08140625 115.27203125 -65.4453125 114.4140625 C-71.33914999 98.71367188 -69.46901145 78.83294446 -65.375 62.9375 C-65.11976563 61.75542969 -64.86453125 60.57335937 -64.6015625 59.35546875 C-59.58126695 37.73135166 -47.36669492 14.49714529 -28.1875 2.4375 C-19.85502659 -2.13567145 -8.78204234 -5.12426271 0 0 Z " fill="#F4E8D9" transform="translate(256.375,167.0625)"/>
<path d="M0 0 C3.74869537 2.768388 7.17138316 5.94810076 9.625 9.9375 C10 12.875 10 12.875 9.625 14.9375 C7.03087545 14.56532367 5.89789007 14.25721303 4.16796875 12.23046875 C3.72066406 11.53566406 3.27335937 10.84085938 2.8125 10.125 C-0.07807435 6.11990071 -2.57877113 3.41679664 -7.375 1.9375 C-15.40821002 0.63982761 -21.76891451 2.27557834 -28.375 6.9375 C-48.91323537 24.00899777 -59.09226532 51.02292639 -62.375 76.9375 C-63.78073019 95.17499957 -62.36560368 116.45906015 -50.21875 131.22265625 C-41.780568 139.07088061 -33.66169624 141.50538595 -22.46875 141.28125 C-16.95760828 140.9778844 -12.86732692 139.0804526 -8.375 135.9375 C-7.7665625 135.52628906 -7.158125 135.11507812 -6.53125 134.69140625 C4.48066442 126.25728089 14.12138497 110.33906736 18.8125 97.3125 C20.59448574 92.56053802 22.12231759 90.43899023 26.625 87.9375 C29.19227995 87.66552492 31.58590692 87.68043824 34.16015625 87.859375 C36.8020829 87.94311277 39.05961759 87.54111939 41.625 86.9375 C41.67398438 87.79214844 41.72296875 88.64679688 41.7734375 89.52734375 C41.84820312 90.63207031 41.92296875 91.73679687 42 92.875 C42.06960938 93.97714844 42.13921875 95.07929688 42.2109375 96.21484375 C42.41589844 97.56255859 42.41589844 97.56255859 42.625 98.9375 C47.96316149 101.60658074 54.20931011 99.45769365 59.625 97.9375 C59.625 98.9275 59.625 99.9175 59.625 100.9375 C53.45594689 103.76919651 48.45273954 105.84786527 41.625 104.9375 C39.33766032 103.80360512 37.63739931 102.54741945 35.625 100.9375 C34.4803125 102.113125 34.4803125 102.113125 33.3125 103.3125 C28.6410705 107.8752916 28.6410705 107.8752916 24.5625 108.125 C21.625 107.9375 21.625 107.9375 19.625 106.9375 C19.2846875 107.61554688 18.944375 108.29359375 18.59375 108.9921875 C14.94468865 115.99916169 10.71528246 121.91795705 5.625 127.9375 C4.90376953 128.89462891 4.90376953 128.89462891 4.16796875 129.87109375 C-1.87404521 137.68914639 -11.81468641 143.56844869 -21.375 145.9375 C-32.9660225 147.32556072 -41.92974002 144.2672522 -51.34375 137.62109375 C-57.94612935 132.14873702 -61.16654159 124.71452419 -64.375 116.9375 C-64.72820312 116.10476563 -65.08140625 115.27203125 -65.4453125 114.4140625 C-71.33914999 98.71367188 -69.46901145 78.83294446 -65.375 62.9375 C-65.11976563 61.75542969 -64.86453125 60.57335937 -64.6015625 59.35546875 C-59.58126695 37.73135166 -47.36669492 14.49714529 -28.1875 2.4375 C-19.85502659 -2.13567145 -8.78204234 -5.12426271 0 0 Z " fill="#F4E8DA" transform="translate(256.375,167.0625)"/>
<path d="M0 0 C8.15331645 7.48883912 12.67556946 17.96238098 13.33203125 28.921875 C13.68236593 42.44963572 11.52345631 54.1991986 1.9609375 64.44140625 C-2.4892221 68.94404415 -7.20181109 72.02265566 -13.0390625 74.44140625 C-14.04259766 74.89193359 -14.04259766 74.89193359 -15.06640625 75.3515625 C-25.3475907 79.23636858 -40.51188626 79.38392017 -50.81640625 75.4765625 C-51.91662109 74.96416016 -51.91662109 74.96416016 -53.0390625 74.44140625 C-53.94785156 74.02761719 -54.85664063 73.61382812 -55.79296875 73.1875 C-65.30359389 68.43865724 -71.99244203 62.33314518 -76.0390625 52.44140625 C-76.4309375 51.59578125 -76.8228125 50.75015625 -77.2265625 49.87890625 C-80.72673023 39.37840305 -80.90153883 24.1309867 -76.41796875 13.9609375 C-70.2736604 2.73408514 -62.3251303 -5.02595509 -49.96875 -9.0703125 C-32.59256846 -13.46711957 -14.34364258 -10.96381875 0 0 Z M-65.9140625 5.12890625 C-73.00930714 14.20739999 -74.49179724 22.21277711 -74.6015625 33.50390625 C-74.61630615 34.50873047 -74.6310498 35.51355469 -74.64624023 36.54882812 C-74.49470639 47.66251992 -71.07802695 57.56559421 -63.0390625 65.44140625 C-52.01701892 74.04518057 -39.74845959 76.06908721 -26.0390625 75.44140625 C-14.78523583 73.48624298 -6.16518651 68.6325598 1.19921875 59.98046875 C8.55275853 49.38224068 8.98877941 35.87353223 7.9609375 23.44140625 C5.93905278 13.65548421 0.58205708 4.51193984 -7.69140625 -1.2109375 C-26.90437602 -12.24001332 -49.93215501 -11.36854665 -65.9140625 5.12890625 Z " fill="#F4E8DA" transform="translate(341.0390625,71.55859375)"/>
<path d="M0 0 C8.23025865 7.03470528 13.6676662 16.76554443 14.85546875 27.5859375 C15.82637751 40.74548542 14.11511696 52.59048632 5.96484375 63.30078125 C-2.50269277 72.47394582 -13.83355643 78.27608823 -26.33203125 78.82421875 C-41.8084454 79.18477172 -53.83112893 76.65548186 -66.14453125 66.5859375 C-68.6894999 64.12962554 -70.44701109 61.68298054 -72.14453125 58.5859375 C-72.62792969 57.73257813 -73.11132812 56.87921875 -73.609375 56 C-77.08294032 48.66798678 -77.63125969 41.92829686 -77.70703125 33.8984375 C-77.72169434 32.93671631 -77.73635742 31.97499512 -77.75146484 30.98413086 C-77.59293731 19.84613902 -73.13982842 9.50972019 -65.1796875 1.64453125 C-47.20259297 -13.40681552 -18.82065976 -13.91245768 0 0 Z M-66.34765625 8.92578125 C-73.81992938 19.98799429 -74.49921861 32.12533394 -72.66796875 44.9140625 C-70.17580563 56.62422656 -64.22509933 65.29291652 -54.2421875 71.83203125 C-43.78142212 77.67209045 -30.36315793 78.21506655 -19.00610352 75.09863281 C-8.40465842 71.89699394 -0.88173757 67.23874457 4.85546875 57.5859375 C8.88129079 49.16129394 10.1457853 41.84967468 9.85546875 32.5859375 C9.82710938 31.68101563 9.79875 30.77609375 9.76953125 29.84375 C9.05157349 17.77522202 4.67193213 9.82933076 -4.14453125 1.5859375 C-12.57540636 -5.48010332 -24.07081965 -8.18847234 -34.87890625 -7.796875 C-47.62864158 -6.3022888 -58.12029436 -0.9305983 -66.34765625 8.92578125 Z " fill="#F4E8DA" transform="translate(443.14453125,70.4140625)"/>
<path d="M0 0 C0 0.66 0 1.32 0 2 C-0.8971875 1.855625 -1.794375 1.71125 -2.71875 1.5625 C-19.58411513 -0.94639729 -36.5041486 -2.31895405 -51.0703125 8.37890625 C-58.29944296 14.45196119 -62.00371884 21.79457478 -64 31 C-64.21807377 34.24728331 -64.18512834 37.49608171 -64.1875 40.75 C-64.19974609 41.61882812 -64.21199219 42.48765625 -64.22460938 43.3828125 C-64.24919801 54.30016842 -61.32634561 64.12645068 -53.890625 72.33203125 C-44.039754 81.02277902 -32.63855205 82.72914723 -20 82 C-14.39 80.68 -8.78 79.36 -3 78 C-2.67 66.12 -2.34 54.24 -2 42 C-7.61 42 -13.22 42 -19 42 C-19 41.34 -19 40.68 -19 40 C-11.74 40 -4.48 40 3 40 C3 52.54 3 65.08 3 78 C-11.15565397 85.07782699 -26.09532246 88.19111661 -41.6875 83.375 C-53.61405369 78.60774761 -62.40123183 70.38629175 -68.046875 58.86328125 C-72.13800272 47.80565774 -71.7576248 31.74683332 -67 21 C-63.25473579 13.65809318 -59.1191736 8.21207004 -52 4 C-51.23816406 3.53851563 -50.47632813 3.07703125 -49.69140625 2.6015625 C-35.62483212 -5.18569294 -14.95641219 -5.64646573 0 0 Z " fill="#F4E8DA" transform="translate(247,64)"/>
<path d="M0 0 C5.63265306 5.63265306 5.63265306 5.63265306 8.015625 8.3828125 C8.80175171 9.28882202 8.80175171 9.28882202 9.60375977 10.21313477 C10.41864868 11.15950806 10.41864868 11.15950806 11.25 12.125 C11.82355225 12.78878662 12.39710449 13.45257324 12.98803711 14.13647461 C16.96813407 18.7590084 20.8524808 23.45086161 24.69140625 28.19140625 C27.41344185 31.50298593 30.20143139 34.7531 33 38 C37.31513985 43.00816106 41.5422422 48.0757463 45.7109375 53.20703125 C52.01990402 60.90483169 58.52323751 68.44377709 65 76 C65.33 51.58 65.66 27.16 66 2 C66.66 2 67.32 2 68 2 C68 30.05 68 58.1 68 87 C63.83958354 83.53298629 61.02245127 81.07297492 57.8125 77 C54.47105191 72.82458916 51.08806694 68.69926852 47.625 64.625 C47.16536865 64.08311035 46.7057373 63.5412207 46.23217773 62.98291016 C44.82227928 61.32123536 43.41130843 59.66047736 42 58 C36.04110869 50.98905616 30.12400229 43.9538275 24.31640625 36.81640625 C20.88568712 32.6451609 17.37925048 28.53979242 13.87109375 24.43359375 C10.17594936 20.0145027 6.59850689 15.49813361 3 11 C2.67 35.75 2.34 60.5 2 86 C1.34 86 0.68 86 0 86 C0 57.62 0 29.24 0 0 Z " fill="#F4E8DA" transform="translate(96,61)"/>
<path d="M0 0 C2.5625 0.25 2.5625 0.25 5 1 C7.21400174 5.42800349 6.27821736 10.66897947 4.85546875 15.234375 C4.31807662 16.74632283 3.76107561 18.2514048 3.1875 19.75 C2.88271729 20.56057861 2.57793457 21.37115723 2.26391602 22.20629883 C-2.65435564 34.75757414 -9.18051796 47.70736594 -18 58 C-18.33 58 -18.66 58 -19 58 C-19.27362496 51.23985389 -18.27696727 45.10440401 -16.875 38.5 C-16.65126709 37.44425781 -16.42753418 36.38851562 -16.19702148 35.30078125 C-13.28255194 22.11288184 -9.77827248 9.77827248 0 0 Z " fill="#000" transform="translate(350,194)"/>
<path d="M0 0 C0.66 0 1.32 0 2 0 C7.597041 12.24745769 12.91121042 24.02791785 13.875 37.625 C13.92446777 38.31271484 13.97393555 39.00042969 14.02490234 39.70898438 C14.20052637 43.42961179 14.12844937 44.80732594 12 48 C10.12890625 47.7109375 10.12890625 47.7109375 8 47 C1.12094648 35.74336696 -0.17733776 22.98616488 -0.0625 10.0625 C-0.05798828 9.09248047 -0.05347656 8.12246094 -0.04882812 7.12304688 C-0.0371315 4.7486324 -0.02074086 2.37434979 0 0 Z " fill="#000" transform="translate(329,260)"/>
<path d="M0 0 C3.35342685 0.83835671 5.03180435 2.03966593 7.0859375 4.8359375 C8.79508448 8.41492049 8.66629034 11.90111005 8 15.75 C5.91891892 20.29054054 5.91891892 20.29054054 3 21.75 C0.125 22.0625 0.125 22.0625 -3 21.75 C-5.83439004 19.45184591 -7.75701706 17.48559243 -8.2734375 13.796875 C-8.45712314 9.64275359 -8.42064982 6.60617716 -5.875 3.1875 C-3 0.75 -3 0.75 0 0 Z " fill="#F4E8DB" transform="translate(428,340.25)"/>
<path d="M0 0 C0.66 0 1.32 0 2 0 C3.40234375 1.42578125 3.40234375 1.42578125 4.9375 3.3125 C6.86463171 5.66350211 8.81719293 7.88235135 11 10 C8.125 10.125 8.125 10.125 5 10 C4.34 9.34 3.68 8.68 3 8 C2.97873047 9.12148438 2.97873047 9.12148438 2.95703125 10.265625 C2.56887431 18.28054132 2.56887431 18.28054132 -0.125 21.6875 C-3.67311558 23.3072919 -6.14078064 23.43689276 -10 23 C-10.66 22.34 -11.32 21.68 -12 21 C-11.8125 19 -11.8125 19 -11 17 C-7.3558226 14.5705484 -5.28758728 14.83820425 -1 15 C-1.01160156 14.25234375 -1.02320313 13.5046875 -1.03515625 12.734375 C-1.04869141 11.25710938 -1.04869141 11.25710938 -1.0625 9.75 C-1.07410156 8.77546875 -1.08570313 7.8009375 -1.09765625 6.796875 C-1.01195577 4.34241322 -0.70706066 2.33831086 0 0 Z " fill="#F1510F" transform="translate(465,354)"/>
<path d="M0 0 C1.96474995 0.73302598 3.92167397 1.48705383 5.875 2.25 C6.96554687 2.66765625 8.05609375 3.0853125 9.1796875 3.515625 C12 5 12 5 14 9 C10.7 8.01 7.4 7.02 4 6 C4.8245501 9.793417 4.8245501 9.793417 6.0625 12.375 C7.19481633 15.54548571 7.49752329 17.65948646 7 21 C4.8125 23.4375 4.8125 23.4375 2 25 C-2.29268293 24.70731707 -2.29268293 24.70731707 -4 23 C-4.29978682 20.15202522 -4.40071289 18.58103368 -2.75 16.1875 C-1 15 -1 15 3 15 C2.7834375 14.33613281 2.566875 13.67226563 2.34375 12.98828125 C1.92609375 11.66376953 1.92609375 11.66376953 1.5 10.3125 C1.2215625 9.44238281 0.943125 8.57226562 0.65625 7.67578125 C0.00149195 5.00608323 -0.11831495 2.73603316 0 0 Z " fill="#F15110" transform="translate(455,306)"/>
<path d="M0 0 C0.66 0 1.32 0 2 0 C2 1.65 2 3.3 2 5 C2.99 5 3.98 5 5 5 C5 5.99 5 6.98 5 8 C4.01 8 3.02 8 2 8 C2 11.3 2 14.6 2 18 C2.99 18 3.98 18 5 18 C5 18.66 5 19.32 5 20 C3.33388095 20.042721 1.66617115 20.04063832 0 20 C-1 19 -1 19 -1.09765625 16.49609375 C-1.08605469 15.48675781 -1.07445312 14.47742188 -1.0625 13.4375 C-1.05347656 12.42558594 -1.04445312 11.41367187 -1.03515625 10.37109375 C-1.02355469 9.58863281 -1.01195312 8.80617188 -1 8 C-2.299375 8.144375 -3.59875 8.28875 -4.9375 8.4375 C-5.66839844 8.51871094 -6.39929688 8.59992188 -7.15234375 8.68359375 C-9.01140229 8.81886614 -9.01140229 8.81886614 -10 10 C-10.23287008 11.68183948 -10.41264166 13.3712416 -10.5625 15.0625 C-10.68818359 16.44115234 -10.68818359 16.44115234 -10.81640625 17.84765625 C-10.87699219 18.55792969 -10.93757812 19.26820313 -11 20 C-11.99 20 -12.98 20 -14 20 C-14 15.05 -14 10.1 -14 5 C-12.68 5.33 -11.36 5.66 -10 6 C-9.67 5.67 -9.34 5.34 -9 5 C-6.32941149 4.85884839 -3.67567762 4.95752893 -1 5 C-0.67 3.35 -0.34 1.7 0 0 Z " fill="#F5EADC" transform="translate(195,342)"/>
<path d="M0 0 C1.32 0.33 2.64 0.66 4 1 C4.33 3.97 4.66 6.94 5 10 C5.66 10 6.32 10 7 10 C7.33 7.03 7.66 4.06 8 1 C9.32 1 10.64 1 12 1 C12.66 3.31 13.32 5.62 14 8 C15.41377341 5.36095629 16.37240135 2.92879371 17 0 C17.99 0 18.98 0 20 0 C19.32584613 5.2584002 17.75734451 10.02638346 16 15 C15.01 15 14.02 15 13 15 C12.01 12.36 11.02 9.72 10 7 C9.01 9.64 8.02 12.28 7 15 C6.01 15 5.02 15 4 15 C3.32779649 13.06441401 2.66241923 11.12645628 2 9.1875 C1.62875 8.10855469 1.2575 7.02960938 0.875 5.91796875 C0 3 0 3 0 0 Z " fill="#F5E9DC" transform="translate(287,347)"/>
<path d="M0 0 C1.32 0.33 2.64 0.66 4 1 C4.33 3.31 4.66 5.62 5 8 C5.66 8 6.32 8 7 8 C7.2165625 6.576875 7.2165625 6.576875 7.4375 5.125 C8 2 8 2 9 0 C9.99 0 10.98 0 12 0 C12.99 2.64 13.98 5.28 15 8 C15.66 5.36 16.32 2.72 17 0 C17.99 0 18.98 0 20 0 C18.07289294 10.55808656 18.07289294 10.55808656 16 15 C15.01 15 14.02 15 13 15 C12.34 12.36 11.68 9.72 11 7 C9.68 9.64 8.36 12.28 7 15 C6.01 15 5.02 15 4 15 C3.3299166 12.87607494 2.66403203 10.75082476 2 8.625 C1.62875 7.44164062 1.2575 6.25828125 0.875 5.0390625 C0 2 0 2 0 0 Z " fill="#F5E9DC" transform="translate(331,347)"/>
<path d="M0 0 C1.32 0.33 2.64 0.66 4 1 C4.33 3.97 4.66 6.94 5 10 C5.66 10 6.32 10 7 10 C7.66 6.7 8.32 3.4 9 0 C9.99 0 10.98 0 12 0 C12.99 2.31 13.98 4.62 15 7 C15.99 4.69 16.98 2.38 18 0 C18.66 0 19.32 0 20 0 C19.40380045 4.86896303 18.43023178 9.32790951 17 14 C15.68 14 14.36 14 13 14 C12.34 11.69 11.68 9.38 11 7 C9.68 9.64 8.36 12.28 7 15 C6.01 14.67 5.02 14.34 4 14 C2.83203125 11.34765625 2.83203125 11.34765625 1.8125 8.0625 C1.46832031 6.98097656 1.12414062 5.89945312 0.76953125 4.78515625 C0 2 0 2 0 0 Z " fill="#F5E9DC" transform="translate(209,347)"/>
<path d="M0 0 C2.375 2.25 2.375 2.25 4 5 C4 6.32 4 7.64 4 9 C0.7 9 -2.6 9 -6 9 C-6 9.99 -6 10.98 -6 12 C-3.03 12.495 -3.03 12.495 0 13 C0 12.34 0 11.68 0 11 C0.99 11.33 1.98 11.66 3 12 C2.01 13.485 2.01 13.485 1 15 C-2.375 15.5 -2.375 15.5 -6 15 C-8.5 12.9375 -8.5 12.9375 -10 10 C-9.93931504 6.48027215 -9.66225706 4.08052467 -7.8125 1.0625 C-5.00906675 -0.58089191 -3.1812472 -0.5193873 0 0 Z " fill="#F4E9DB" transform="translate(390,347)"/>
<path d="M0 0 C3.4375 0.8125 3.4375 0.8125 5.4375 2.8125 C6.1138654 6.96731601 5.40580553 9.26557084 3.0625 12.625 C1.54442397 14.63578492 0.70604083 15.67822959 -1.5625 16.8125 C1.0775 17.1425 3.7175 17.4725 6.4375 17.8125 C6.4375 18.8025 6.4375 19.7925 6.4375 20.8125 C1.4875 20.8125 -3.4625 20.8125 -8.5625 20.8125 C-8.5625 19.8225 -8.5625 18.8325 -8.5625 17.8125 C-6.8828125 16.3125 -6.8828125 16.3125 -4.6875 14.8125 C-1.8632462 12.86892749 -0.51051534 11.73452301 1.4375 8.8125 C1.60463569 6.18718476 1.60463569 6.18718476 1.4375 3.8125 C-1.03516765 4.15694881 -1.03516765 4.15694881 -3.5625 4.8125 C-3.8925 5.4725 -4.2225 6.1325 -4.5625 6.8125 C-5.5525 6.8125 -6.5425 6.8125 -7.5625 6.8125 C-7.1755131 4.56797595 -6.64285336 2.94195819 -5.4375 1 C-3.5625 -0.1875 -3.5625 -0.1875 0 0 Z " fill="#F4E8DA" transform="translate(411.5625,341.1875)"/>
<path d="M0 0 C5.45454545 -0.36363636 5.45454545 -0.36363636 7.6875 1.125 C9.58347379 3.83353399 9.29278753 5.92358655 9.1875 9.1875 C9.16042969 10.27417969 9.13335937 11.36085938 9.10546875 12.48046875 C9.07066406 13.31191406 9.03585938 14.14335937 9 15 C7.68 15 6.36 15 5 15 C3.453125 15.061875 3.453125 15.061875 1.875 15.125 C-1 15 -1 15 -3 13 C-3.3125 10.5 -3.3125 10.5 -3 8 C0.4352048 5.70986347 1.985331 5.82157027 6 6 C6 5.01 6 4.02 6 3 C3.36 3.33 0.72 3.66 -2 4 C-1.34 2.68 -0.68 1.36 0 0 Z " fill="#F4E7D9" transform="translate(168,347)"/>
<path d="M0 0 C3.375 0.9375 3.375 0.9375 5.375 3.9375 C5.375 5.5875 5.375 7.2375 5.375 8.9375 C2.075 8.9375 -1.225 8.9375 -4.625 8.9375 C-3.635 10.4225 -3.635 10.4225 -2.625 11.9375 C0.95857241 12.18765873 0.95857241 12.18765873 4.375 11.9375 C4.375 12.5975 4.375 13.2575 4.375 13.9375 C1.2917365 15.47913175 -1.23378099 15.23497535 -4.625 14.9375 C-7.48076764 12.63446158 -7.60681881 11.08294949 -8.0625 7.4375 C-7.625 3.9375 -7.625 3.9375 -6.0625 1.4375 C-3.625 -0.0625 -3.625 -0.0625 0 0 Z " fill="#F4E7D9" transform="translate(316.625,347.0625)"/>
<path d="M0 0 C3.375 0.9375 3.375 0.9375 5.375 3.9375 C5.375 5.5875 5.375 7.2375 5.375 8.9375 C2.075 8.9375 -1.225 8.9375 -4.625 8.9375 C-3.635 10.4225 -3.635 10.4225 -2.625 11.9375 C0.95857241 12.18765873 0.95857241 12.18765873 4.375 11.9375 C4.375 12.5975 4.375 13.2575 4.375 13.9375 C1.2917365 15.47913175 -1.23378099 15.23497535 -4.625 14.9375 C-7.48076764 12.63446158 -7.60681881 11.08294949 -8.0625 7.4375 C-7.625 3.9375 -7.625 3.9375 -6.0625 1.4375 C-3.625 -0.0625 -3.625 -0.0625 0 0 Z " fill="#F4E7D9" transform="translate(255.625,347.0625)"/>
<path d="M0 0 C0.99 0.66 1.98 1.32 3 2 C2.67 2.99 2.34 3.98 2 5 C1.34 5 0.68 5 0 5 C0 4.34 0 3.68 0 3 C-1.65 3.33 -3.3 3.66 -5 4 C-5 4.99 -5 5.98 -5 7 C-4.43410156 7.20753906 -3.86820313 7.41507812 -3.28515625 7.62890625 C-0.98497949 8.59506134 0.98535502 9.52202577 3 11 C4 14.75 4 14.75 4 18 C1.4146657 20.48192093 0.07356189 20.99225664 -3.5625 21.375 C-7 21 -7 21 -8.9375 19.6875 C-10 18 -10 18 -10 15 C-9.01 15 -8.02 15 -7 15 C-6.67 15.66 -6.34 16.32 -6 17 C-4.02 17 -2.04 17 0 17 C-0.19357766 15.06877373 -0.19357766 15.06877373 -1 13 C-2.84956914 11.62330042 -2.84956914 11.62330042 -5.0625 10.5625 C-7.2421875 9.29296875 -7.2421875 9.29296875 -9 8 C-9.6875 5.375 -9.6875 5.375 -9 3 C-6.72678821 -0.66239677 -4.03980218 -0.42081273 0 0 Z " fill="#F5E9DB" transform="translate(148,341)"/>
<path d="M0 0 C2.375 0.3125 2.375 0.3125 5 1 C7.47342266 4.71013399 7.38503486 6.61060262 7 11 C5.8125 13.4375 5.8125 13.4375 4 15 C1.4375 15.4375 1.4375 15.4375 -1 15 C-3.48386059 11.27420911 -3.3804212 9.41288598 -3 5 C-1.5 2.0625 -1.5 2.0625 0 0 Z " fill="#000" transform="translate(426,344)"/>
<path d="M0 0 C0.99 0 1.98 0 3 0 C3.33 2.31 3.66 4.62 4 7 C4.33 6.67 4.66 6.34 5 6 C7.7096684 5.71477175 9.36210242 5.56417872 11.65234375 7.12890625 C13.59804859 9.83033413 13.29345269 11.90296655 13.1875 15.1875 C13.16042969 16.27417969 13.13335937 17.36085938 13.10546875 18.48046875 C13.07066406 19.31191406 13.03585938 20.14335937 13 21 C12.01 21 11.02 21 10 21 C9.67 17.37 9.34 13.74 9 10 C7.35 10.33 5.7 10.66 4 11 C3.67 14.3 3.34 17.6 3 21 C2.01 21 1.02 21 0 21 C0 14.07 0 7.14 0 0 Z " fill="#F5E9DB" transform="translate(232,341)"/>
<path d="M0 0 C0.33 0 0.66 0 1 0 C0.07916756 15.20961167 0.07916756 15.20961167 -4.4375 20.76953125 C-6 22 -6 22 -8.625 21.75 C-11 21 -11 21 -12 20 C-12.04063832 18.33382885 -12.042721 16.66611905 -12 15 C-7.25 13.875 -7.25 13.875 -5 15 C-4.80664062 14.25234375 -4.61328125 13.5046875 -4.4140625 12.734375 C-4.15367187 11.74953125 -3.89328125 10.7646875 -3.625 9.75 C-3.36976563 8.77546875 -3.11453125 7.8009375 -2.8515625 6.796875 C-2.10401491 4.34162697 -1.22876183 2.24382595 0 0 Z " fill="#F25A1E" transform="translate(501,331)"/>
<path d="M0 0 C0.33 0 0.66 0 1 0 C1.36571706 5.7295672 0.57237306 10.8023244 -2 16 C-5.45245824 18.30163882 -6.94738713 18.34490322 -11 18 C-11.66 17.34 -12.32 16.68 -13 16 C-12.46428571 12.46428571 -12.46428571 12.46428571 -11 11 C-8.66702567 10.95907063 -6.33294775 10.95758277 -4 11 C-2.68 7.37 -1.36 3.74 0 0 Z " fill="#F2591D" transform="translate(485,328)"/>
<path d="M0 0 C1.640625 1.12890625 1.640625 1.12890625 3 3 C3.29296875 5.91796875 3.29296875 5.91796875 3.1875 9.1875 C3.16042969 10.27417969 3.13335937 11.36085938 3.10546875 12.48046875 C3.07066406 13.31191406 3.03585937 14.14335937 3 15 C2.01 15 1.02 15 0 15 C-0.33 11.37 -0.66 7.74 -1 4 C-2.65 4.33 -4.3 4.66 -6 5 C-6.33 8.3 -6.66 11.6 -7 15 C-7.66 15 -8.32 15 -9 15 C-9 10.38 -9 5.76 -9 1 C-5.64123179 0.16030795 -3.38356374 -0.34703218 0 0 Z " fill="#F4E8D9" transform="translate(274,347)"/>
<path d="M0 0 C0.9075 0.103125 1.815 0.20625 2.75 0.3125 C2.49483901 5.54330035 0.60862875 8.17509678 -2.6796875 11.9921875 C-4.25 13.3125 -4.25 13.3125 -7.25 13.3125 C-7.7320394 6.20241889 -7.7320394 6.20241889 -5.625 2.3125 C-3.25 0.3125 -3.25 0.3125 0 0 Z " fill="#000" transform="translate(288.25,257.6875)"/>
<path d="M0 0 C-0.61875 0.2475 -1.2375 0.495 -1.875 0.75 C-4.35068687 2.20628639 -4.95125002 3.37812506 -6 6 C-3.36 6 -0.72 6 2 6 C2.33 5.01 2.66 4.02 3 3 C3.33 3 3.66 3 4 3 C4 4.65 4 6.3 4 8 C0.7 8 -2.6 8 -6 8 C-5.01 9.485 -5.01 9.485 -4 11 C-0.41642759 11.25015873 -0.41642759 11.25015873 3 11 C3 11.66 3 12.32 3 13 C0.15916359 14.42041821 -1.85477278 14.31452272 -5 14 C-7.375 12.4375 -7.375 12.4375 -9 10 C-9.42841969 6.51143969 -9.66830867 4.15097604 -7.875 1.0625 C-5.214973 -0.44484863 -2.99793795 -0.19986253 0 0 Z " fill="#F4E8DA" transform="translate(362,348)"/>
<path d="M0 0 C0.33 0 0.66 0 1 0 C1 1.65 1 3.3 1 5 C2.32 5 3.64 5 5 5 C5 5.99 5 6.98 5 8 C3.68 8 2.36 8 1 8 C1.11362262 9.4800841 1.24122908 10.95910074 1.375 12.4375 C1.44460937 13.26121094 1.51421875 14.08492188 1.5859375 14.93359375 C1.72257813 15.61550781 1.85921875 16.29742187 2 17 C2.66 17.33 3.32 17.66 4 18 C4 18.66 4 19.32 4 20 C-0.875 19.125 -0.875 19.125 -2 18 C-2.07205511 16.31391034 -2.08386068 14.62499341 -2.0625 12.9375 C-2.05347656 12.01839844 -2.04445312 11.09929687 -2.03515625 10.15234375 C-2.02355469 9.44207031 -2.01195312 8.73179687 -2 8 C-2.66 8 -3.32 8 -4 8 C-4 7.01 -4 6.02 -4 5 C-3.34 5 -2.68 5 -2 5 C-1.7834375 4.0409375 -1.7834375 4.0409375 -1.5625 3.0625 C-1 1 -1 1 0 0 Z " fill="#F4E9DB" transform="translate(158,342)"/>
<path d="M0 0 C1 3 1 3 0.0625 5 C-0.288125 5.66 -0.63875 6.32 -1 7 C-1 7.99 -1 8.98 -1 10 C-3.875 10.125 -3.875 10.125 -7 10 C-9 8 -9 8 -9.3125 5.5 C-9.209375 4.675 -9.10625 3.85 -9 3 C-5.81237635 0.87491756 -3.73487777 0.4979837 0 0 Z " fill="#F6EBDF" transform="translate(174,352)"/>
<path d="M0 0 C0.66 0 1.32 0 2 0 C3.40234375 1.42578125 3.40234375 1.42578125 4.9375 3.3125 C6.86463171 5.66350211 8.81719293 7.88235135 11 10 C8.125 10.125 8.125 10.125 5 10 C4.34 9.34 3.68 8.68 3 8 C2.67 11.63 2.34 15.26 2 19 C1.67 19 1.34 19 1 19 C0.93941406 18.25234375 0.87882812 17.5046875 0.81640625 16.734375 C0.73261719 15.74953125 0.64882813 14.7646875 0.5625 13.75 C0.48128906 12.77546875 0.40007812 11.8009375 0.31640625 10.796875 C0.0724006 8.07566083 0.0724006 8.07566083 -0.5625 5.78125 C-1.10557113 3.57017468 -0.68805001 2.14060003 0 0 Z " fill="#F3632A" transform="translate(465,354)"/>
<path d="M0 0 C0.33 2.31 0.66 4.62 1 7 C-2.3 7 -5.6 7 -9 7 C-9 2 -9 2 -7 0 C-3.99340864 -1.066855 -3.14820941 -1.04940314 0 0 Z " fill="#F6EBDF" transform="translate(260,349)"/>
<path d="M0 0 C0.33 2.31 0.66 4.62 1 7 C-2.3 7 -5.6 7 -9 7 C-9 2 -9 2 -7 0 C-3.99340864 -1.066855 -3.14820941 -1.04940314 0 0 Z " fill="#F6EBDF" transform="translate(321,349)"/>
<path d="M0 0 C1.96474995 0.73302598 3.92167397 1.48705383 5.875 2.25 C6.96554687 2.66765625 8.05609375 3.0853125 9.1796875 3.515625 C12.15418742 5.08115127 12.94622245 5.87868421 14 9 C13.28972656 8.7834375 12.57945312 8.566875 11.84765625 8.34375 C10.92855469 8.0653125 10.00945312 7.786875 9.0625 7.5 C8.14597656 7.2215625 7.22945313 6.943125 6.28515625 6.65625 C4.23606155 5.95399619 4.23606155 5.95399619 3 6 C2.34 7.32 1.68 8.64 1 10 C0.67 6.7 0.34 3.4 0 0 Z " fill="#F25B21" transform="translate(455,306)"/>
<path d="M0 0 C2.97 0 5.94 0 9 0 C8.67 0.99 8.34 1.98 8 3 C6.67696283 3.3721042 5.34262065 3.70630173 4 4 C2.85185003 6.29629994 2.69230191 8.07698086 2.4375 10.625 C2.35371094 11.44226563 2.26992188 12.25953125 2.18359375 13.1015625 C2.12300781 13.72804688 2.06242187 14.35453125 2 15 C1.34 15 0.68 15 0 15 C0 10.05 0 5.1 0 0 Z " fill="#F4E8DA" transform="translate(370,347)"/>
<path d="M0 0 C0 0.99 0 1.98 0 3 C0.3062434 4.33981486 0.63451555 5.67511887 1 7 C-1.64 7 -4.28 7 -7 7 C-7.66 5.68 -8.32 4.36 -9 3 C-6.38997624 -0.48003168 -4.1689578 -0.27793052 0 0 Z " fill="#F7EEE3" transform="translate(390,347)"/>
<path d="M0 0 C2.875 -0.125 2.875 -0.125 6 0 C6.66 0.66 7.32 1.32 8 2 C7.625 4.625 7.625 4.625 7 7 C4.36 7 1.72 7 -1 7 C-0.649375 6.21625 -0.29875 5.4325 0.0625 4.625 C0.371875 3.75875 0.68125 2.8925 1 2 C0.67 1.34 0.34 0.68 0 0 Z " fill="#F7EDE2" transform="translate(357,347)"/>
<path d="M0 0 C0.33 0 0.66 0 1 0 C1 4.95 1 9.9 1 15 C-0.98 15.99 -0.98 15.99 -3 17 C-3.66 16.34 -4.32 15.68 -5 15 C-4.01 14.34 -3.02 13.68 -2 13 C-1.19458793 9.89188713 -1.19458793 9.89188713 -0.8125 6.375 C-0.65394531 5.18648438 -0.49539063 3.99796875 -0.33203125 2.7734375 C-0.22246094 1.85820312 -0.11289062 0.94296875 0 0 Z " fill="#F04706" transform="translate(465,359)"/>
<path d="M0 0 C1.58357459 0.31127516 3.16684993 0.62407289 4.75 0.9375 C5.63171875 1.11152344 6.5134375 1.28554688 7.421875 1.46484375 C9.63235053 1.92368488 11.81512068 2.43336074 14 3 C14 3.66 14 4.32 14 5 C5.36497244 5.4390692 5.36497244 5.4390692 1 2 C0.67 1.34 0.34 0.68 0 0 Z " fill="#F26026" transform="translate(487,326)"/>
<path d="M0 0 C0.99 0 1.98 0 3 0 C3.3125 2.75 3.3125 2.75 3 6 C0.75 8.375 0.75 8.375 -2 10 C-3.32 10 -4.64 10 -6 10 C-5.67 9.01 -5.34 8.02 -5 7 C-4.34 6.71125 -3.68 6.4225 -3 6.125 C-0.70849401 5.1446618 -0.70849401 5.1446618 -0.25 2.375 C-0.1675 1.59125 -0.085 0.8075 0 0 Z " fill="#F25A1D" transform="translate(459,321)"/>
<path d="M0 0 C1.65 0 3.3 0 5 0 C5.33 1.32 5.66 2.64 6 4 C3.69 4 1.38 4 -1 4 C-0.67 2.68 -0.34 1.36 0 0 Z " fill="#000" transform="translate(313,350)"/>
<path d="M0 0 C1.65 0 3.3 0 5 0 C5.33 1.32 5.66 2.64 6 4 C3.69 4 1.38 4 -1 4 C-0.67 2.68 -0.34 1.36 0 0 Z " fill="#000" transform="translate(252,350)"/>
<path d="M0 0 C1.98 0 3.96 0 6 0 C4.125 3.875 4.125 3.875 3 5 C1.33382885 5.04063832 -0.33388095 5.042721 -2 5 C-1.34 3.35 -0.68 1.7 0 0 Z " fill="#F15310" transform="translate(476,339)"/>
<path d="M0 0 C2.9375 1.3125 2.9375 1.3125 6 3 C6.33 3.99 6.66 4.98 7 6 C3.7 5.01 0.4 4.02 -3 3 C-2.01 2.01 -1.02 1.02 0 0 Z " fill="#F3652E" transform="translate(462,309)"/>
<path d="M0 0 C0.33 0 0.66 0 1 0 C1.08159574 4.16138263 0.98248524 7.9472484 0 12 C-0.99 11.34 -1.98 10.68 -3 10 C-2.01 6.7 -1.02 3.4 0 0 Z " fill="#F36933" transform="translate(485,328)"/>
<path d="M0 0 C-3 2 -3 2 -5 3 C-5 3.99 -5 4.98 -5 6 C-6.32 6 -7.64 6 -9 6 C-8.6875 4.125 -8.6875 4.125 -8 2 C-4.77208445 -0.1519437 -3.71599191 -0.20086443 0 0 Z " fill="#F25F24" transform="translate(462,369)"/>
<path d="M0 0 C1.98 0 3.96 0 6 0 C5.34 1.32 4.68 2.64 4 4 C2.68 3.67 1.36 3.34 0 3 C0 2.01 0 1.02 0 0 Z " fill="#000" transform="translate(168,356)"/>
<path d="M0 0 C1.65 0 3.3 0 5 0 C5.33 0.99 5.66 1.98 6 3 C3.69 3 1.38 3 -1 3 C-0.67 2.01 -0.34 1.02 0 0 Z " fill="#000" transform="translate(357,350)"/>
<path d="M0 0 C0.33 0 0.66 0 1 0 C0.67 3.3 0.34 6.6 0 10 C-2 7 -2 7 -1.6875 3.875 C-1 1 -1 1 0 0 Z " fill="#F57E4F" transform="translate(501,331)"/>
<path d="M0 0 C-0.33 1.32 -0.66 2.64 -1 4 C-2.65 3.67 -4.3 3.34 -6 3 C-3.375 0 -3.375 0 0 0 Z " fill="#000" transform="translate(371,255)"/>
<path d="M0 0 C1.65 0 3.3 0 5 0 C5 0.99 5 1.98 5 3 C3.02 3 1.04 3 -1 3 C-0.67 2.01 -0.34 1.02 0 0 Z " fill="#000" transform="translate(385,350)"/>
<path d="M0 0 C0.66 0 1.32 0 2 0 C2 2.64 2 5.28 2 8 C1.67 7.34 1.34 6.68 1 6 C0.34 6 -0.32 6 -1 6 C-0.67 4.02 -0.34 2.04 0 0 Z " fill="#F25F26" transform="translate(498,338)"/>
</svg>
