<svg width="1440" height="56" viewBox="0 0 1440 56" fill="none" xmlns="http://www.w3.org/2000/svg">
<g opacity="1.33" clip-path="url(#clip0_17071_73656)">
<g opacity="1.86415">
<path d="M7.16057 2.5926L2.77477 1.55805L0.891618 5.65287L-3.49418 4.61832L-5.37626 8.71262L-9.76313 7.67859L-11.6452 11.7729L-16.6526 1.5152C-17.87 -0.978606 -18.0469 -3.85387 -17.1443 -6.47808C-16.2418 -9.10228 -14.3337 -11.2605 -11.8399 -12.4778C-9.34611 -13.6952 -6.47084 -13.8721 -3.84664 -12.9695C-1.22243 -12.067 0.935748 -10.1589 2.15313 -7.6651L7.16057 2.5926Z" stroke="#f25202" stroke-linecap="round" stroke-linejoin="round"/>
</g>
<g opacity="1.547344">
<path d="M97.1039 -8.92081L93.0041 -8.1746L92.9235 -4.00741L88.8237 -3.2612L88.7438 0.905153L84.6433 1.6522L84.5634 5.81855L76.5237 -1.02173C74.5692 -2.68471 73.3553 -5.05602 73.1491 -7.61401C72.9429 -10.172 73.7613 -12.7071 75.4243 -14.6617C77.0873 -16.6162 79.4586 -17.8301 82.0166 -18.0363C84.5746 -18.2425 87.1097 -17.4241 89.0643 -15.7611L97.1039 -8.92081Z" stroke="#f25202" stroke-linecap="round" stroke-linejoin="round"/>
</g>
<g opacity="1.780151">
<path d="M158.399 2.6492L157.367 -1.5826L153.014 -1.41009L151.983 -5.64189L147.631 -5.46868L146.599 -9.70117L142.247 -9.52797L148.889 -18.338C150.504 -20.4798 152.903 -21.8925 155.56 -22.2652C158.216 -22.6378 160.912 -21.94 163.053 -20.3252C165.195 -18.7104 166.608 -16.3109 166.981 -13.6546C167.353 -10.9983 166.655 -8.30266 165.041 -6.16081L158.399 2.6492Z" stroke="#f25202" stroke-linecap="round" stroke-linejoin="round"/>
</g>
<g opacity="1.95838">
<path d="M237.15 2.66146L233.897 -1.09509C233.038 -2.08654 232.384 -3.23814 231.973 -4.48352C231.561 -5.7289 231.4 -7.04343 231.499 -8.35132C231.598 -9.6592 231.955 -10.9346 232.549 -12.104C233.143 -13.2733 233.962 -14.3135 234.96 -15.1646C239.13 -18.7213 245.417 -18.1574 249.004 -14.0148L252.176 -10.3522" stroke="#f25202" stroke-linecap="round" stroke-linejoin="round"/>
<path d="M252.928 -11.0028L236.399 3.31221C235.984 3.67157 235.939 4.29926 236.298 4.7142L238.25 6.96813C238.61 7.38306 239.237 7.42812 239.652 7.06875L256.181 -7.24626C256.596 -7.60562 256.641 -8.23331 256.282 -8.64825L254.33 -10.9022C253.97 -11.3171 253.343 -11.3622 252.928 -11.0028Z" stroke="#f25202" stroke-linecap="round" stroke-linejoin="round"/>
</g>
<g opacity="1.783843">
<path d="M328.164 -0.224547L329.094 -1.08007" stroke="#f25202" stroke-linecap="round" stroke-linejoin="round"/>
<path d="M310.601 13.352L310.788 8.8876C310.838 7.7093 311.12 6.55239 311.618 5.48359C312.117 4.41478 312.822 3.45521 313.693 2.66018C314.564 1.86516 315.584 1.25041 316.693 0.851367C317.803 0.452328 318.981 0.276892 320.159 0.335174C325.08 0.577983 328.847 4.82321 328.641 9.74635L328.459 14.0992" stroke="#f25202" stroke-linecap="round" stroke-linejoin="round"/>
<path d="M320.834 3.94116C323.35 4.4724 325.185 6.83115 325.074 9.48525" stroke="#f25202" stroke-linecap="round" stroke-linejoin="round"/>
<path d="M329.352 14.1363L309.709 13.3145C309.215 13.2938 308.799 13.6769 308.778 14.17L308.666 16.8486C308.646 17.3418 309.029 17.7582 309.522 17.7789L329.165 18.6007C329.658 18.6214 330.075 18.2383 330.095 17.7452L330.208 15.0666C330.228 14.5734 329.845 14.1569 329.352 14.1363Z" stroke="#f25202" stroke-linecap="round" stroke-linejoin="round"/>
</g>
<g opacity="1.956863">
<path d="M407.335 -2.05793L403.333 -3.40097L401.224 0.256006L397.222 -1.08703L395.114 2.56955L391.111 1.22691L389.003 4.88349L385.216 -5.11576C384.296 -7.54673 384.379 -10.2438 385.447 -12.6136C386.515 -14.9835 388.481 -16.832 390.912 -17.7525C393.343 -18.6729 396.04 -18.59 398.409 -17.522C400.779 -16.4539 402.628 -14.4882 403.548 -12.0572L407.335 -2.05793Z" stroke="#f25202" stroke-linecap="round" stroke-linejoin="round"/>
</g>
<g opacity="1.601671">
<path d="M472.52 -9.50074L475.233 -12.6739C475.95 -13.5114 476.824 -14.1988 477.808 -14.6966C478.791 -15.1944 479.863 -15.4927 480.961 -15.5743C482.06 -15.6559 483.165 -15.5192 484.211 -15.172C485.256 -14.8248 486.223 -14.274 487.055 -13.5515C490.532 -10.5329 490.85 -5.23923 487.858 -1.74008L485.212 1.35371" stroke="#f25202" stroke-linecap="round" stroke-linejoin="round"/>
<path d="M485.847 1.89643L471.885 -10.0435C471.535 -10.3432 471.007 -10.3021 470.708 -9.95156L469.08 -8.04769C468.78 -7.6972 468.821 -7.17008 469.171 -6.87035L483.133 5.06955C483.484 5.36928 484.011 5.32814 484.31 4.97765L485.939 3.07378C486.238 2.72329 486.197 2.19617 485.847 1.89643Z" stroke="#f25202" stroke-linecap="round" stroke-linejoin="round"/>
</g>
<g opacity="1.784215">
<path d="M577.028 0.66179L577.388 -0.0646973" stroke="#f25202" stroke-linecap="round" stroke-linejoin="round"/>
<path d="M582.487 6.08098L583.573 5.71445" stroke="#f25202" stroke-linecap="round" stroke-linejoin="round"/>
<path d="M569.41 -0.398417L569.043 -1.48486" stroke="#f25202" stroke-linecap="round" stroke-linejoin="round"/>
<path d="M562.924 10.8655L564.724 7.2331C565.199 6.27437 565.859 5.41914 566.666 4.7167C567.473 4.01427 568.411 3.47853 569.426 3.14036C570.441 2.80219 571.513 2.66828 572.581 2.74636C573.648 2.82443 574.689 3.11295 575.644 3.59527C579.635 5.60996 581.193 10.5174 579.209 14.5231L577.454 18.0647" stroke="#f25202" stroke-linecap="round" stroke-linejoin="round"/>
<path d="M574.875 6.83374C576.765 8.20111 577.418 10.833 576.348 12.9925" stroke="#f25202" stroke-linecap="round" stroke-linejoin="round"/>
<path d="M578.18 18.4246L562.198 10.5055C561.796 10.3067 561.31 10.4708 561.111 10.872L560.031 13.0515C559.833 13.4527 559.997 13.9391 560.398 14.1379L576.381 22.057C576.782 22.2558 577.268 22.0917 577.467 21.6905L578.547 19.511C578.746 19.1098 578.582 18.6234 578.18 18.4246Z" stroke="#f25202" stroke-linecap="round" stroke-linejoin="round"/>
</g>
<g opacity="1.771792">
<path d="M640.829 -4.44571L641.816 -8.66449C642.077 -9.77797 642.555 -10.8289 643.223 -11.7566C643.892 -12.6844 644.737 -13.4707 645.711 -14.0701C646.685 -14.6696 647.768 -15.0703 648.897 -15.2493C650.027 -15.4283 651.181 -15.3819 652.292 -15.113C656.936 -13.9897 659.755 -9.26319 658.667 -4.61093L657.704 -0.497618" stroke="#f25202" stroke-linecap="round" stroke-linejoin="round"/>
<path d="M658.548 -0.300275L639.985 -4.64317C639.519 -4.7522 639.053 -4.46281 638.944 -3.99682L638.352 -1.46555C638.243 -0.999559 638.532 -0.533416 638.998 -0.424392L657.561 3.9185C658.027 4.02753 658.493 3.73815 658.602 3.27215L659.194 0.740885C659.303 0.274891 659.014 -0.191252 658.548 -0.300275Z" stroke="#f25202" stroke-linecap="round" stroke-linejoin="round"/>
</g>
<g opacity="1.871952">
<path d="M737.109 -3.03995L718.68 -12.3857C718.218 -12.6204 717.652 -12.4355 717.418 -11.9729L716.143 -9.45979C715.909 -8.99715 716.094 -8.43191 716.556 -8.1973L734.985 1.14849C735.448 1.38311 736.013 1.19825 736.248 0.735612L737.522 -1.77745C737.757 -2.2401 737.572 -2.80533 737.109 -3.03995Z" stroke="#f25202" stroke-linecap="round" stroke-linejoin="round"/>
</g>
<g opacity="1.939618">
<path d="M786.949 8.07011C787.107 8.49807 786.888 8.97297 786.46 9.13082C786.032 9.28867 785.557 9.0697 785.399 8.64174C785.242 8.21378 785.461 7.73888 785.888 7.58103C786.316 7.42317 786.791 7.64214 786.949 8.07011Z" fill="#f25202" stroke="#f25202" stroke-width="0.125"/>
<path d="M792.784 5.91801C792.942 6.34597 792.723 6.82087 792.295 6.97872C791.867 7.13657 791.392 6.9176 791.234 6.48964C791.076 6.06168 791.295 5.58678 791.723 5.42893C792.151 5.27107 792.626 5.49004 792.784 5.91801Z" fill="#f25202" stroke="#f25202" stroke-width="0.125"/>
<path d="M802.104 14.3172L798.125 12.9437L795.991 16.5719L792.012 15.1985L789.879 18.8262L785.899 17.4532L783.766 21.081L780.077 11.0786C779.18 8.64681 779.285 5.95837 780.371 3.60464C781.456 1.25091 783.432 -0.575296 785.864 -1.47223C788.295 -2.36917 790.984 -2.26336 793.337 -1.17809C795.691 -0.0928208 797.517 1.88301 798.414 4.31475L802.104 14.3172Z" stroke="#f25202" stroke-linecap="round" stroke-linejoin="round"/>
</g>
<g opacity="1.653752">
<path d="M937.638 2.65662L936.857 2.06982" stroke="#f25202" stroke-linecap="round" stroke-linejoin="round"/>
<path d="M934.699 11.4439L933.332 11.6379" stroke="#f25202" stroke-linecap="round" stroke-linejoin="round"/>
<path d="M946.605 21.6136L942.701 18.6796C941.671 17.9053 940.804 16.9347 940.15 15.8237C939.497 14.7127 939.07 13.4834 938.894 12.2066C938.717 10.9298 938.796 9.63072 939.124 8.3843C939.452 7.13788 940.024 5.96876 940.806 4.94432C944.074 0.663484 950.23 -0.0981225 954.535 3.13731L958.341 5.99793" stroke="#f25202" stroke-linecap="round" stroke-linejoin="round"/>
<path d="M944.471 6.57031C946.508 4.6343 949.769 4.44291 952.09 6.18716" stroke="#f25202" stroke-linecap="round" stroke-linejoin="round"/>
<path d="M958.928 5.21703L946.018 22.3943C945.694 22.8255 945.781 23.4378 946.212 23.7618L948.555 25.5222C948.986 25.8463 949.598 25.7594 949.922 25.3282L962.832 8.151C963.156 7.71978 963.069 7.1075 962.638 6.78342L960.295 5.02304C959.864 4.69896 959.252 4.78581 958.928 5.21703Z" stroke="#f25202" stroke-linecap="round" stroke-linejoin="round"/>
</g>
<g opacity="1.916037">
<path d="M1024.35 12.8388L1022.34 8.5202C1021.81 7.3804 1021.51 6.1469 1021.46 4.89079C1021.41 3.63467 1021.61 2.3808 1022.04 1.20144C1022.48 0.0220777 1023.14 -1.05944 1024 -1.98076C1024.85 -2.90209 1025.88 -3.64501 1027.03 -4.16668C1031.81 -6.34709 1037.45 -4.17234 1039.67 0.589958L1041.63 4.80056" stroke="#f25202" stroke-linecap="round" stroke-linejoin="round"/>
<path d="M1029.43 -1.08301C1032.08 -1.81208 1034.97 -0.477667 1036.16 2.08972" stroke="#f25202" stroke-linecap="round" stroke-linejoin="round"/>
<path d="M1042.49 4.39865L1023.49 13.2407C1023.01 13.4626 1022.81 14.0293 1023.03 14.5063L1024.23 17.0974C1024.46 17.5744 1025.02 17.7812 1025.5 17.5592L1044.5 8.71721C1044.98 8.49524 1045.18 7.9286 1044.96 7.45159L1043.76 4.86045C1043.54 4.38343 1042.97 4.17668 1042.49 4.39865Z" stroke="#f25202" stroke-linecap="round" stroke-linejoin="round"/>
</g>
<g opacity="1.567231">
<path d="M1101.47 -6.26689L1104.52 -8.92348C1105.32 -9.62466 1106.26 -10.1598 1107.27 -10.4979C1108.28 -10.8361 1109.35 -10.9706 1110.41 -10.8938C1111.48 -10.817 1112.52 -10.5303 1113.47 -10.0502C1114.42 -9.57022 1115.27 -8.90636 1115.97 -8.09693C1118.87 -4.71534 1118.43 0.399916 1115.07 3.32947L1112.1 5.91965" stroke="#f25202" stroke-linecap="round" stroke-linejoin="round"/>
<path d="M1114.02 -5.40894C1115.24 -3.42693 1114.83 -0.753735 1113.02 0.825609" stroke="#f25202" stroke-linecap="round" stroke-linejoin="round"/>
<path d="M1112.63 6.52892L1100.94 -6.87627C1100.65 -7.21279 1100.14 -7.24772 1099.8 -6.95428L1097.97 -5.36032C1097.63 -5.06688 1097.6 -4.5562 1097.89 -4.21968L1109.58 9.18551C1109.88 9.52203 1110.39 9.55696 1110.72 9.26352L1112.55 7.66957C1112.89 7.37613 1112.92 6.86544 1112.63 6.52892Z" stroke="#f25202" stroke-linecap="round" stroke-linejoin="round"/>
</g>
<g opacity="1.986616">
<path d="M1192.57 9.95611C1192.57 10.4134 1192.2 10.7859 1191.74 10.7881C1191.29 10.7903 1190.91 10.4214 1190.91 9.96415C1190.91 9.50687 1191.28 9.13437 1191.74 9.13215C1192.19 9.12993 1192.57 9.49883 1192.57 9.95611Z" fill="#f25202" stroke="#f25202" stroke-width="0.125"/>
<path d="M1198.8 9.92609C1198.8 10.3834 1198.43 10.7559 1197.98 10.7581C1197.52 10.7603 1197.15 10.3914 1197.14 9.93412C1197.14 9.47684 1197.51 9.10434 1197.97 9.10212C1198.43 9.0999 1198.8 9.4688 1198.8 9.92609Z" fill="#f25202" stroke="#f25202" stroke-width="0.125"/>
<path d="M1204.71 21.0286L1201.43 18.373L1198.18 21.0603L1194.9 18.4047L1191.65 21.092L1188.37 18.4364L1185.12 21.1237L1185.06 10.4379C1185.05 7.84 1186.07 5.34352 1187.9 3.49763C1189.73 1.65174 1192.21 0.607641 1194.81 0.595031C1197.41 0.58242 1199.91 1.60233 1201.75 3.43039C1203.6 5.25844 1204.64 7.74491 1204.65 10.3428L1204.71 21.0286Z" stroke="#f25202" stroke-linecap="round" stroke-linejoin="round"/>
</g>
<g opacity="1.67529">
<path d="M1270.82 -10.0674L1273.36 -13.3425C1274.03 -14.207 1274.86 -14.9305 1275.81 -15.4715C1276.76 -16.0125 1277.81 -16.3602 1278.89 -16.4946C1279.97 -16.629 1281.07 -16.5474 1282.13 -16.2545C1283.18 -15.9617 1284.16 -15.4633 1285.02 -14.7882C1288.61 -11.9679 1289.19 -6.74024 1286.39 -3.12854L1283.93 0.0647516" stroke="#f25202" stroke-linecap="round" stroke-linejoin="round"/>
<path d="M1284.58 0.571363L1270.17 -10.574C1269.81 -10.8538 1269.29 -10.7873 1269.01 -10.4255L1267.49 -8.46043C1267.21 -8.09866 1267.27 -7.57858 1267.64 -7.29879L1282.05 3.84653C1282.41 4.12633 1282.93 4.05987 1283.21 3.69811L1284.73 1.733C1285.01 1.37124 1284.94 0.851155 1284.58 0.571363Z" stroke="#f25202" stroke-linecap="round" stroke-linejoin="round"/>
</g>
<g opacity="1.879488">
<path d="M1352.65 10.8706L1352.84 6.15673L1348.25 5.03714L1348.44 0.323236L1343.86 -0.795357L1344.05 -5.51026L1339.47 -6.62885L1349.01 -13.8195C1351.33 -15.5676 1354.25 -16.3223 1357.13 -15.9176C1360.01 -15.5128 1362.6 -13.9817 1364.35 -11.6611C1366.1 -9.34057 1366.86 -6.42059 1366.45 -3.54356C1366.05 -0.666537 1364.51 1.93186 1362.19 3.68001L1352.65 10.8706Z" stroke="#f25202" stroke-linecap="round" stroke-linejoin="round"/>
</g>
<g opacity="1.925119">
<path d="M1458.16 -1.81898L1441.97 -9.95279C1441.56 -10.157 1441.07 -9.99289 1440.86 -9.58629L1439.75 -7.37762C1439.55 -6.97102 1439.71 -6.47587 1440.12 -6.27168L1456.32 1.86213C1456.72 2.06632 1457.22 1.90223 1457.42 1.49563L1458.53 -0.713038C1458.73 -1.11964 1458.57 -1.61479 1458.16 -1.81898Z" stroke="#f25202" stroke-linecap="round" stroke-linejoin="round"/>
</g>
<g opacity="1.799137">
<path d="M180.102 48.2787L179.521 47.5356" stroke="#f25202" stroke-linecap="round" stroke-linejoin="round"/>
<path d="M188.532 45.277L188.694 43.9528" stroke="#f25202" stroke-linecap="round" stroke-linejoin="round"/>
<path d="M175.158 55.7383L173.834 55.5764" stroke="#f25202" stroke-linecap="round" stroke-linejoin="round"/>
<path d="M183.714 68.2077L180.808 64.4926C180.041 63.5121 179.476 62.3895 179.144 61.1895C178.813 59.9895 178.723 58.7358 178.879 57.5007C179.035 56.2657 179.433 55.0736 180.052 53.9933C180.67 52.913 181.497 51.9659 182.483 51.2064C186.604 48.0326 192.536 48.8652 195.741 52.962L198.574 56.5842" stroke="#f25202" stroke-linecap="round" stroke-linejoin="round"/>
<path d="M185.494 53.6416C187.879 52.3464 190.969 52.9852 192.696 55.1938" stroke="#f25202" stroke-linecap="round" stroke-linejoin="round"/>
<path d="M199.317 56.0029L182.971 68.7887C182.56 69.1097 182.488 69.7025 182.809 70.1129L184.552 72.3419C184.873 72.7523 185.466 72.8248 185.877 72.5038L202.223 59.718C202.633 59.397 202.706 58.8041 202.385 58.3938L200.641 56.1647C200.32 55.7544 199.728 55.6819 199.317 56.0029Z" stroke="#f25202" stroke-linecap="round" stroke-linejoin="round"/>
</g>
<g opacity="1.63584">
<path d="M380.745 79.0334L377.648 75.7694L373.834 78.159L370.737 74.895L366.925 77.2847L363.827 74.0205L360.014 76.4103L361.445 65.1028C361.793 62.3537 363.219 59.8555 365.408 58.1576C367.598 56.4597 370.373 55.7013 373.122 56.0491C375.871 56.397 378.369 57.8226 380.067 60.0125C381.765 62.2023 382.523 64.9769 382.176 67.7259L380.745 79.0334Z" stroke="#f25202" stroke-linecap="round" stroke-linejoin="round"/>
</g>
<g opacity="1.858737">
<path d="M440.209 47.3005L439.947 46.4863" stroke="#f25202" stroke-linecap="round" stroke-linejoin="round"/>
<path d="M448.321 47.3887L448.874 46.3129" stroke="#f25202" stroke-linecap="round" stroke-linejoin="round"/>
<path d="M433.666 52.0975L432.59 51.5449" stroke="#f25202" stroke-linecap="round" stroke-linejoin="round"/>
<path d="M437.037 65.3865L435.729 61.3154C435.384 60.241 435.255 59.1088 435.349 57.9842C435.443 56.8595 435.759 55.7647 436.279 54.7628C436.798 53.7609 437.511 52.8717 438.376 52.1465C439.24 51.4213 440.24 50.8744 441.317 50.5374C445.817 49.1286 450.603 51.6959 452.046 56.1852L453.321 60.1545" stroke="#f25202" stroke-linecap="round" stroke-linejoin="round"/>
<path d="M443.116 53.5525C445.551 53.198 447.979 54.7095 448.756 57.1298" stroke="#f25202" stroke-linecap="round" stroke-linejoin="round"/>
</g>
<g opacity="1.996547">
<path d="M617.695 62.4476L613.015 62.8583L612.491 67.5277L607.811 67.9384L607.287 72.607L602.606 73.0186L602.083 77.6872L593.77 69.1714C591.749 67.1011 590.634 64.3127 590.669 61.4198C590.704 58.5269 591.886 55.7663 593.957 53.7455C596.027 51.7246 598.815 50.6089 601.708 50.6438C604.601 50.6788 607.362 51.8615 609.383 53.9318L617.695 62.4476Z" stroke="#f25202" stroke-linecap="round" stroke-linejoin="round"/>
</g>
<g opacity="1.685911">
<path d="M742.434 56.8117L741.72 56.1306" stroke="#f25202" stroke-linecap="round" stroke-linejoin="round"/>
<path d="M750.707 52.425L750.674 51.0295" stroke="#f25202" stroke-linecap="round" stroke-linejoin="round"/>
<path d="M749.198 76.8962L745.626 73.491C744.683 72.5922 743.927 71.5158 743.402 70.3236C742.877 69.1315 742.594 67.8472 742.568 66.5449C742.541 65.2426 742.773 63.948 743.25 62.7357C743.726 61.5235 744.438 60.4175 745.344 59.4815C749.128 55.5704 755.397 55.5322 759.336 59.2874L762.819 62.6075" stroke="#f25202" stroke-linecap="round" stroke-linejoin="round"/>
</g>
<g opacity="1.873061">
<path d="M935.589 45.7222L935.921 44.8005" stroke="#f25202" stroke-linecap="round" stroke-linejoin="round"/>
<path d="M942.891 51.469L944.143 50.8787" stroke="#f25202" stroke-linecap="round" stroke-linejoin="round"/>
<path d="M926.301 45.5056L925.71 44.2527" stroke="#f25202" stroke-linecap="round" stroke-linejoin="round"/>
<path d="M920.078 59.9209L921.735 55.3126C922.172 54.0963 922.845 52.9786 923.717 52.0238C924.588 51.0691 925.639 50.2962 926.811 49.7498C927.982 49.2033 929.25 48.8941 930.541 48.8399C931.832 48.7858 933.122 48.9878 934.335 49.4342C939.403 51.2989 941.953 56.972 940.126 62.0538L938.511 66.5469" stroke="#f25202" stroke-linecap="round" stroke-linejoin="round"/>
<path d="M933.861 53.4268C936.318 54.8058 937.466 57.8736 936.481 60.6132" stroke="#f25202" stroke-linecap="round" stroke-linejoin="round"/>
</g>
<g opacity="1.607399">
<path d="M1247.06 61.8058L1243.12 62.5829L1243.1 66.607L1239.15 67.3842L1239.13 71.4075L1235.18 72.1855L1235.16 76.2088L1227.3 69.7164C1225.39 68.1381 1224.19 65.8656 1223.96 63.399C1223.72 60.9323 1224.48 58.4736 1226.05 56.5636C1227.63 54.6537 1229.91 53.4489 1232.37 53.2145C1234.84 52.98 1237.3 53.735 1239.21 55.3134L1247.06 61.8058Z" stroke="#f25202" stroke-linecap="round" stroke-linejoin="round"/>
</g>
<g opacity="1.895408">
<path d="M1313 55.529C1313.29 55.8573 1313.26 56.3568 1312.93 56.6447C1312.6 56.9326 1312.1 56.8998 1311.81 56.5715C1311.52 56.2431 1311.56 55.7436 1311.89 55.4557C1312.21 55.1679 1312.71 55.2007 1313 55.529Z" fill="#f25202" stroke="#f25202" stroke-width="0.125"/>
<path d="M1324.25 59.8505L1320.21 59.9881L1319.54 63.9753L1315.51 64.113L1314.84 68.0995L1310.8 68.2378L1310.14 72.2244L1303.39 64.5265C1301.75 62.6551 1300.92 60.2084 1301.08 57.7248C1301.24 55.2413 1302.38 52.9241 1304.26 51.2833C1306.13 49.6424 1308.57 48.8121 1311.06 48.9752C1313.54 49.1382 1315.86 50.2812 1317.5 52.1526L1324.25 59.8505Z" stroke="#f25202" stroke-linecap="round" stroke-linejoin="round"/>
</g>
</g>
<defs>
<clipPath id="clip0_17071_73656">
<rect width="1440" height="177" fill="#f25202"/>
</clipPath>
</defs>
</svg>
