<svg width="22" height="28" viewBox="0 0 22 28" fill="none" xmlns="http://www.w3.org/2000/svg">
<mask id="mask0_3132_1290" style="mask-type:luminance" maskUnits="userSpaceOnUse" x="0" y="0" width="22" height="28">
<path d="M21.7782 0.666992H0.222656V27.3337H21.7782V0.666992Z" fill="white"/>
</mask>
<g mask="url(#mask0_3132_1290)">
<path d="M9.89208 27.3337C6.64499 25.4614 3.48708 23.6408 0.255342 21.7774C1.00869 21.5156 1.12779 20.9971 1.12514 20.3492C1.10781 16.1036 1.11164 11.858 1.12197 7.61237C1.12342 6.99941 1.03198 6.47597 0.222656 6.23886C1.69892 5.38801 3.06283 4.60204 4.55088 3.74444C4.55088 4.24884 4.55088 4.60375 4.55088 4.95868C4.55446 10.0389 4.55446 15.1258 4.55446 20.2024C4.5489 20.9774 4.75295 21.3811 5.44848 21.7696C6.01035 22.0836 6.09463 22.1126 6.52443 22.3537C6.52443 22.0051 6.52681 21.7928 6.52443 21.5463C6.52443 15.4798 6.53635 9.49926 6.52443 3.31921C6.52299 2.80556 6.63997 2.4922 7.1125 2.24768C8.02877 1.77374 8.90955 1.23122 9.89208 0.666992V27.3337Z" fill="#33CC99"/>
<path d="M12.0205 27.3337C15.2677 25.4614 18.4255 23.6408 21.6573 21.7774C20.9039 21.5156 20.7848 20.9971 20.7874 20.3492C20.8048 16.1036 20.801 11.858 20.7906 7.61237C20.7892 6.99941 20.8806 6.47597 21.6899 6.23886C20.2137 5.38801 18.8498 4.60204 17.3617 3.74444C17.3617 4.24884 17.3617 4.60375 17.3617 4.95868C17.3581 10.0389 17.3582 15.1258 17.3582 20.2024C17.3637 20.9774 17.1596 21.3811 16.4641 21.7696C15.9023 22.0836 15.818 22.1126 15.3882 22.3537C15.3882 22.0051 15.3858 21.7928 15.3882 21.5463C15.3882 15.4798 15.3762 9.49926 15.3882 3.31921C15.3896 2.80556 15.2726 2.4922 14.8001 2.24768C13.8838 1.77374 13.0031 1.23122 12.0205 0.666992V27.3337Z" fill="url(#paint0_linear_3132_1290)"/>
<path d="M13.7027 2.5459L14.0808 3.31229L14.9261 3.43513L14.3145 4.03167L14.4589 4.87391L13.7027 4.47622L12.9467 4.87391L13.0911 4.03167L12.4795 3.43513L13.3248 3.31229L13.7027 2.5459Z" fill="white"/>
</g>
<defs>
<linearGradient id="paint0_linear_3132_1290" x1="12.0205" y1="14.0003" x2="21.6899" y2="14.0003" gradientUnits="userSpaceOnUse">
<stop stop-color="#07806D"/>
<stop offset="1" stop-color="#035663"/>
</linearGradient>
</defs>
</svg>
