<svg xmlns="http://www.w3.org/2000/svg" width="1440" height="325" viewBox="0 0 1440 325" fill="none">
  <path d="M170.063 0.631836C191.928 -0.214104 212.447 2.93058 226.707 12.7334C242.963 23.9084 245.362 40.3068 249.133 56.0137C251.012 63.8424 253.239 71.4977 257.755 78.124C262.282 84.7667 269.087 90.3425 280.062 94.0684C296.987 99.8143 317.669 98.3745 337.75 97.3467C357.9 96.3154 377.432 95.7007 392.311 102.929C400.745 107.026 405.146 112.22 407.324 118.053C409.512 123.912 409.48 130.473 408.93 137.353C408.382 144.195 407.316 151.386 407.508 158.329C407.701 165.299 409.159 172.102 413.697 178.234C419.103 185.539 428.399 191.134 439.447 195.432C450.507 199.734 463.384 202.759 476.023 204.886C501.334 209.145 528.06 211.093 550.751 218.902C560.331 222.2 569.013 226.997 575.204 232.54C581.406 238.093 585.037 244.325 584.705 250.5C584.367 256.761 588.027 262.644 594.226 267.029C600.43 271.418 609.23 274.352 619.343 274.73C632.564 275.226 645.857 272.132 657.885 268.604C671.779 264.528 685.479 259.736 700.742 258.722C714.962 257.776 730.098 260.079 744.702 261.379C759.262 262.675 773.289 262.971 785.1 257.906C792.517 254.725 797.137 250.127 800.877 245.118C802.742 242.621 804.391 240.016 806.052 237.446C807.716 234.871 809.394 232.327 811.329 229.919C818.26 221.294 829.53 214.014 843.114 208.887C856.692 203.762 872.547 200.801 888.608 200.789C900.11 200.78 906.989 192.518 910.964 184.417C912.956 180.357 914.238 176.302 915.022 173.266C915.415 171.747 915.684 170.48 915.854 169.592C915.94 169.148 916 168.798 916.04 168.559C916.06 168.439 916.074 168.347 916.084 168.284C916.086 168.272 916.086 168.262 916.088 168.252L933.413 127.87C933.415 127.865 933.419 127.858 933.424 127.848C933.434 127.827 933.448 127.796 933.468 127.756C933.507 127.675 933.566 127.553 933.645 127.395C933.802 127.076 934.037 126.607 934.348 126.006C934.969 124.803 935.891 123.07 937.097 120.954C939.508 116.722 943.048 110.962 947.563 104.854C956.607 92.6191 969.511 79.0544 985.034 73.4775C1016.26 62.2591 1057.32 61.621 1089.47 71.8584C1106.97 77.4297 1116.7 86.1388 1127.12 93.2842C1132.33 96.8542 1137.7 100.026 1144.27 102.169C1150.85 104.312 1158.61 105.419 1168.58 104.894C1180.51 104.265 1191.27 101.318 1201.74 97.7959C1212.23 94.2661 1222.38 90.1798 1233.19 87.2119C1269.18 77.3357 1314.22 81.3079 1344.68 96.2686C1355.13 101.398 1369.51 104.831 1384.3 106.126C1399.1 107.421 1414.36 106.583 1426.56 103.136C1450.64 96.3283 1469.12 84.3402 1488.3 73.4414C1506.81 62.9255 1527.62 52.8537 1552.55 49.9082C1565 48.4373 1578.65 49.3347 1590.25 52.3877C1601.81 55.4303 1611.23 60.584 1615.5 67.5547V414.285H-165.31C-165.489 414.285 -165.777 414.321 -166.109 414.372C-166.455 414.425 -166.885 414.5 -167.37 414.59C-168.34 414.769 -169.54 415.008 -170.736 415.245C-171.935 415.483 -173.129 415.72 -174.091 415.897C-174.572 415.986 -174.991 416.06 -175.321 416.11C-175.374 416.118 -175.423 416.123 -175.47 416.13V41.3828C-171.156 36.4386 -167.082 31.9131 -161.891 28.9648C-156.676 26.0034 -150.298 24.616 -141.359 26.1104L-140.927 26.1826L-140.799 25.7637C-139.755 22.3572 -137.006 19.5156 -133.032 17.252C-129.061 14.9899 -123.914 13.3338 -118.173 12.2793C-106.69 10.1702 -92.9344 10.4875 -81.709 13.0869C-70.4551 15.6923 -60.234 19.676 -49.8877 23.5342C-39.5512 27.3887 -29.0976 31.1138 -17.4336 33.1631C24.7132 40.5671 66.9811 24.4873 105.731 12.3652C125.103 6.305 148.215 1.47724 170.063 0.631836Z" fill="#FFFFFF70" stroke="#FFFFFF" stroke-width="1"/>
</svg>